<?xml version="1.0" encoding="UTF-8"?>
<svg
                width="170"
                height="66"
                viewBox="0 0 170 66"
                fill="none"
                xmlns="http://www.w3.org/2000/svg"
              >
                <path
                  fill-rule="evenodd"
                  clip-rule="evenodd"
                  d="M48.577 6.67004C45.548 6.67004 43.092 9.12604 43.092 12.155C43.092 15.184 45.548 17.639 48.577 17.639H17.237C14.208 17.639 11.753 20.094 11.753 23.124C11.753 26.153 14.208 28.608 17.237 28.608H36.825C39.854 28.608 42.309 31.064 42.309 34.093C42.309 37.122 39.854 39.578 36.825 39.578H5.484C2.455 39.578 0 42.034 0 45.062C0 48.091 2.455 50.546 5.484 50.546H36.041C33.012 50.546 30.557 53.002 30.557 56.031C30.557 59.06 33.012 61.516 36.041 61.516H150.434C153.462 61.516 155.917 59.06 155.917 56.031C155.917 53.002 153.462 50.546 150.434 50.546H145.732C142.703 50.546 140.247 48.091 140.247 45.062C140.247 42.034 142.703 39.578 145.732 39.578H160.619C163.648 39.578 166.104 37.122 166.104 34.093C166.104 31.064 163.648 28.608 160.619 28.608H143.38C146.411 28.608 148.866 26.153 148.866 23.124C148.866 20.094 146.411 17.639 143.38 17.639H93.237C96.266 17.639 98.721 15.184 98.721 12.155C98.721 9.12604 96.266 6.67004 93.237 6.67004H48.577ZM158.268 56.031C158.268 59.06 160.724 61.516 163.753 61.516C166.782 61.516 169.237 59.06 169.237 56.031C169.237 53.002 166.782 50.546 163.753 50.546C160.724 50.546 158.268 53.002 158.268 56.031Z"
                  fill="#333333"
                  fill-opacity="0.1"
                />
                <path
                  d="M61 30.0207C61 28.8844 61.642 27.8456 62.6584 27.3374L73.3665 21.9833C73.7831 21.7751 74.2425 21.6666 74.7082 21.6666H101.84C102.407 21.6666 102.963 21.8273 103.442 22.1302L111.602 27.2837C112.472 27.8333 113 28.7908 113 29.8201V54.4166C113 56.0734 111.657 57.4166 110 57.4166H64C62.3432 57.4166 61 56.0734 61 54.4166V30.0207Z"
                  fill="white"
                />
                <path
                  d="M111.337 26.4065L106.944 23.4677C106.507 23.218 105.952 23.3696 105.703 23.8062C105.453 24.2421 105.605 24.7979 106.041 25.0475L110.426 27.9863C111.304 28.4539 111.855 29.3655 111.861 30.3603V30.5137L95.7194 44.1908L89.8421 38.0607C88.9908 37.1728 87.8137 36.6703 86.5833 36.6703C85.3529 36.6703 84.1754 37.1728 83.3245 38.0607L77.4473 44.1908L69.8776 37.7769L69.3764 37.3523L61.3056 30.5137V30.3512C61.3077 29.3673 61.8434 28.4617 62.7049 27.9863L67.0896 25.0475C67.5258 24.7979 67.6774 24.2421 67.4281 23.8062C67.1792 23.3696 66.623 23.218 66.1868 23.4677L61.8293 26.4065C60.3908 27.202 59.4986 28.7167 59.5 30.3603V53.9859C59.5 56.4788 61.521 58.4998 64.0139 58.4998H109.153C111.646 58.4998 113.667 56.4788 113.667 53.9859V30.3603C113.668 28.7167 112.776 27.202 111.337 26.4065ZM61.3056 53.9859V32.8881L76.1926 45.5266L67.625 54.4285L65.4312 56.6943H64.0139C62.5183 56.6943 61.3056 55.4815 61.3056 53.9859ZM67.9318 56.6943L84.6244 39.2707C85.7084 38.1944 87.4582 38.1944 88.5423 39.2707L105.235 56.6943H67.9318ZM111.861 53.9859C111.861 55.4815 110.648 56.6943 109.153 56.6943H107.735L105.415 54.2748L96.9741 45.4998L111.861 32.8881V53.9859Z"
                  fill="#333333"
                />
                <path
                  fill-rule="evenodd"
                  clip-rule="evenodd"
                  d="M68.9541 0.796753C68.9541 23.6948 69.8781 36.0357 69.8781 37.7758L77.4506 44.1891L83.3223 38.0574C84.1781 37.1691 85.3481 36.6708 86.5831 36.6708C87.8181 36.6708 88.9881 37.1691 89.8439 38.0574L95.7156 44.1891C95.7156 44.1891 99.5831 42.2499 104.364 37.7539V8.96819H96.1929V0.796753H68.9541Z"
                  fill="white"
                />
                <path
                  fill-rule="evenodd"
                  clip-rule="evenodd"
                  d="M103.476 36.9525C103.476 37.455 95.6744 44.1999 95.1713 44.1999C92.0001 41.5723 89 36.9525 86.5732 36.9525C85.2294 36.9525 82.4396 39.3683 78.2038 44.1999C77.0291 45.5398 69.9004 38.1636 69.9004 38.0085V2.86066C69.9004 2.35884 70.3093 1.94996 70.8117 1.94996H95.4238L95.4324 9.02779C95.4331 9.38026 95.7192 9.66701 96.0723 9.66701H103.476V36.9525ZM104.874 7.54279C104.79 7.44201 104.739 7.39094 104.566 7.22002L97.8968 0.646101C97.474 0.229359 96.9142 -0.00012207 96.3198 -0.00012207H70.4143C69.175 -0.00012207 68.1672 1.00837 68.1672 2.24702V38.3045C67.9322 38.4635 76.7583 45.9689 77.9977 45.9689C81.8385 40.468 84.7257 37.7175 86.6593 37.7175C88.5938 37.7175 91.5089 40.468 95.4043 45.9689C96.6443 45.9689 105.237 37.8939 105.237 37.2211V8.57307C105.237 8.16314 105.125 7.84582 104.874 7.54279Z"
                  fill="#333333"
                />
                <path
                  fill-rule="evenodd"
                  clip-rule="evenodd"
                  d="M103.26 8.25103L96.9837 8.25169L96.9771 2.05823L103.26 8.25103Z"
                  fill="white"
                />
                <path
                  d="M90.25 26.75C90.25 27.1492 89.9822 27.6321 89.2909 28.0546C88.6125 28.4692 87.6276 28.75 86.5 28.75C85.3724 28.75 84.3875 28.4692 83.7091 28.0546C83.0178 27.6321 82.75 27.1492 82.75 26.75C82.75 26.3508 83.0178 25.8679 83.7091 25.4454C84.3875 25.0308 85.3724 24.75 86.5 24.75C87.6276 24.75 88.6125 25.0308 89.2909 25.4454C89.9822 25.8679 90.25 26.3508 90.25 26.75Z"
                  fill="white"
                  stroke="#333333"
                  stroke-width="1.5"
                />
                <path
                  d="M93.9722 23.7706C94.8696 23.2315 95.1599 22.067 94.6207 21.1695C94.0816 20.2722 92.9169 19.9819 92.0196 20.521C91.1223 21.0602 90.832 22.2248 91.3711 23.1221C91.9103 24.0195 93.0748 24.3098 93.9722 23.7706Z"
                  fill="#333333"
                />
                <path
                  d="M81.0723 23.7707C81.9696 23.2314 82.2601 22.0669 81.7208 21.1696C81.1816 20.2722 80.0171 19.9818 79.1198 20.5211C78.2224 21.0602 77.9321 22.2247 78.4712 23.122C79.0105 24.0195 80.175 24.3098 81.0723 23.7707Z"
                  fill="#333333"
                />
                <path
                  d="M113.666 65C119.051 65 123.416 60.6348 123.416 55.25C123.416 49.8652 119.051 45.5 113.666 45.5C108.282 45.5 103.917 49.8652 103.917 55.25C103.917 60.6348 108.282 65 113.666 65Z"
                  fill="#F5A623"
                  stroke="#333333"
                />
                <path
                  d="M111.948 57.6838C112.218 57.6838 112.519 57.6838 112.851 57.6838C113.183 57.6838 113.484 57.6838 113.754 57.6838V50.9383C113.754 50.8082 113.35 50.2883 112.851 50.2883C112.352 50.2883 111.948 50.8082 111.948 50.9383V57.6838Z"
                  fill="white"
                />
                <path
                  d="M111.948 55.8855C111.948 56.1549 111.948 56.4558 111.948 56.7883C111.948 57.1207 111.948 57.4216 111.948 57.6911H117.798C117.928 57.6911 118.448 57.2869 118.448 56.7883C118.448 56.2896 117.928 55.8855 117.798 55.8855H111.948Z"
                  fill="white"
                />
              </svg>