<?xml version="1.0" encoding="UTF-8"?>
<svg
                width="129"
                height="81"
                viewBox="0 0 129 81"
                fill="none"
                xmlns="http://www.w3.org/2000/svg"
              >
                <g opacity="0.5">
                  <path
                    opacity="0.792248"
                    d="M112.476 75.3861C112.395 75.3644 112.313 75.3429 112.23 75.3221C110.699 74.9406 109.15 75.8729 108.769 77.4031C108.388 78.9333 109.32 80.4829 110.85 80.8638L110.996 80.9015C111.244 80.968 111.493 81 111.738 81C112.998 81 114.151 80.1591 114.494 78.8839C114.902 77.3608 113.999 75.7949 112.476 75.3861Z"
                    fill="#DC645D"
                  />
                  <path
                    opacity="0.792248"
                    d="M25.6141 77.1387H26.5988V78.1234C26.5988 78.6672 27.0396 79.1081 27.5835 79.1081C28.1273 79.1081 28.5682 78.6672 28.5682 78.1234V77.1387H29.5529C30.0967 77.1387 30.5376 76.6978 30.5376 76.154C30.5376 75.6103 30.0967 75.1693 29.5529 75.1693H28.5682V74.1846C28.5682 73.6409 28.1273 73.2 27.5835 73.2C27.0396 73.2 26.5988 73.6409 26.5988 74.1846V75.1693H25.6141C25.0702 75.1693 24.6294 75.6103 24.6294 76.154C24.6294 76.6979 25.0702 77.1387 25.6141 77.1387Z"
                    fill="#5DDC62"
                  />
                  <path
                    opacity="0.792248"
                    d="M126.54 14.0954C126.464 14.0747 126.388 14.0542 126.31 14.0342C124.882 13.6692 123.435 14.5613 123.08 16.0256C122.724 17.4899 123.594 18.9728 125.022 19.3373L125.158 19.3733C125.39 19.437 125.622 19.4676 125.851 19.4676C127.027 19.4676 128.104 18.6629 128.423 17.4426C128.805 15.9852 127.962 14.4867 126.54 14.0954Z"
                    fill="#DC645D"
                  />
                  <path
                    opacity="0.792248"
                    d="M104.737 33.8768H105.986V35.1254C105.986 35.815 106.545 36.3741 107.235 36.3741C107.925 36.3741 108.484 35.815 108.484 35.1254V33.8768H109.732C110.422 33.8768 110.981 33.3176 110.981 32.6281C110.981 31.9386 110.422 31.3794 109.732 31.3794H108.484V30.1305C108.484 29.441 107.925 28.8818 107.235 28.8818C106.545 28.8818 105.986 29.441 105.986 30.1305V31.3794H104.737C104.048 31.3794 103.489 31.9386 103.489 32.6281C103.489 33.3177 104.048 33.8768 104.737 33.8768Z"
                    fill="#DCCF5D"
                  />
                  <path
                    opacity="0.792248"
                    d="M37.3489 2.86925H35.9143V1.43462C35.9143 0.642424 35.2718 0 34.4796 0C33.6874 0 33.045 0.642424 33.045 1.43462V2.86925H31.6104C30.8182 2.86925 30.1758 3.51167 30.1758 4.30387C30.1758 5.09607 30.8182 5.73849 31.6104 5.73849H33.045V7.17311C33.045 7.96531 33.6874 8.60773 34.4796 8.60773C35.2718 8.60773 35.9143 7.96531 35.9143 7.17311V5.73849H37.3489C38.1411 5.73849 38.7835 5.09607 38.7835 4.30387C38.7835 3.51167 38.1412 2.86925 37.3489 2.86925Z"
                    fill="#5D9FDC"
                  />
                  <path
                    opacity="0.792248"
                    d="M3.53976 7.09545C3.46433 7.07468 3.38756 7.05419 3.31 7.03425C1.88162 6.6692 0.435381 7.56133 0.0795521 9.02562C-0.27601 10.4899 0.593712 11.9728 2.02209 12.3373L2.1583 12.3733C2.38965 12.437 2.62206 12.4676 2.85075 12.4676C4.02726 12.4676 5.10407 11.6629 5.42338 10.4426C5.8048 8.98517 4.96175 7.48673 3.53976 7.09545Z"
                    fill="#5DDC62"
                  />
                  <path
                    opacity="0.792248"
                    d="M90.3655 8.795C92.737 8.795 94.6665 6.86557 94.6665 4.49399C94.6665 2.12242 92.737 0.192993 90.3655 0.192993C87.9939 0.192993 86.0645 2.12242 86.0645 4.49399C86.0645 6.86557 87.9939 8.795 90.3655 8.795ZM90.3655 3.06033C91.156 3.06033 91.7991 3.70347 91.7991 4.49399C91.7991 5.28452 91.156 5.92766 90.3655 5.92766C89.5749 5.92766 88.9318 5.28452 88.9318 4.49399C88.9318 3.70347 89.5749 3.06033 90.3655 3.06033Z"
                    fill="#5DDC62"
                  />
                  <path
                    opacity="0.792248"
                    d="M15.0715 34.2409C17.4431 34.2409 19.3725 32.3115 19.3725 29.9399C19.3725 27.5683 17.4431 25.6389 15.0715 25.6389C12.6999 25.6389 10.7705 27.5683 10.7705 29.9399C10.7705 32.3115 12.6999 34.2409 15.0715 34.2409ZM15.0715 28.5063C15.862 28.5063 16.5052 29.1494 16.5052 29.9399C16.5052 30.7304 15.862 31.3736 15.0715 31.3736C14.281 31.3736 13.6378 30.7304 13.6378 29.9399C13.6378 29.1495 14.281 28.5063 15.0715 28.5063Z"
                    fill="#DC645D"
                  />
                  <path
                    opacity="0.792248"
                    d="M13.5617 65.7307C15.9333 65.7307 17.8627 63.8012 17.8627 61.4297C17.8627 59.0581 15.9333 57.1287 13.5617 57.1287C11.1902 57.1287 9.26074 59.0581 9.26074 61.4297C9.26074 63.8012 11.1902 65.7307 13.5617 65.7307ZM13.5617 59.996C14.3523 59.996 14.9954 60.6391 14.9954 61.4297C14.9954 62.2202 14.3523 62.8633 13.5617 62.8633C12.7712 62.8633 12.1281 62.2202 12.1281 61.4297C12.1281 60.6393 12.7712 59.996 13.5617 59.996Z"
                    fill="#DCCF5D"
                  />
                  <path
                    opacity="0.792248"
                    d="M123.616 63.6161C126.346 63.6161 128.567 61.3948 128.567 58.6644C128.567 55.9341 126.346 53.7128 123.616 53.7128C120.885 53.7128 118.664 55.9341 118.664 58.6644C118.664 61.3948 120.885 63.6161 123.616 63.6161ZM123.616 56.6838C124.708 56.6838 125.596 57.5723 125.596 58.6644C125.596 59.7566 124.708 60.6451 123.616 60.6451C122.524 60.6451 121.635 59.7566 121.635 58.6644C121.635 57.5725 122.524 56.6838 123.616 56.6838Z"
                    fill="#5D9FDC"
                  />
                </g>
                <path
                  fill-rule="evenodd"
                  clip-rule="evenodd"
                  d="M49.4541 15.7968C49.4541 38.6948 49.4541 51.0138 49.4541 52.7539C49.4541 54.2802 55.8004 59.6561 58.4972 59.6561C59.861 59.6561 64.6017 52.2211 67.0832 52.2211C69.3577 52.2211 72.9147 57.0349 76.111 59.7913C77.0215 60.5764 79.939 58.2306 84.8636 52.7539V23.9682H76.6929V15.7968H49.4541Z"
                  fill="#F6F6F6"
                />
                <path
                  fill-rule="evenodd"
                  clip-rule="evenodd"
                  d="M83.9761 51.9526C83.9761 52.455 76.1745 59.2 75.6713 59.2C72.5002 56.5723 69.5 51.9526 67.0732 51.9526C65.7294 51.9526 62.9396 54.3684 58.7038 59.2C57.5291 60.5399 50.4004 53.1636 50.4004 53.0086V17.8607C50.4004 17.3588 50.8093 16.95 51.3117 16.95H75.9238L75.9324 24.0278C75.9331 24.3803 76.2192 24.667 76.5723 24.667H83.9761V51.9526ZM85.3739 22.5428C85.2902 22.442 85.2391 22.391 85.0661 22.22L78.3969 15.6461C77.974 15.2294 77.4143 14.9999 76.8198 14.9999H50.9143C49.675 14.9999 48.6672 16.0084 48.6672 17.247V53.3045C48.4322 53.4636 57.2583 60.969 58.4977 60.969C62.3385 55.4681 65.2257 52.7176 67.1593 52.7176C69.0939 52.7176 72.0089 55.4681 75.9043 60.969C77.1444 60.969 85.7369 52.8939 85.7369 52.2212V23.5731C85.7369 23.1632 85.6252 22.8458 85.3739 22.5428Z"
                  fill="#333333"
                />
                <path
                  fill-rule="evenodd"
                  clip-rule="evenodd"
                  d="M83.7604 23.251L77.4837 23.2517L77.4771 17.0582L83.7604 23.251Z"
                  fill="white"
                />
                <path
                  d="M91.8375 41.4067L87.4439 38.4679C87.0074 38.2182 86.4519 38.3699 86.2026 38.8065C85.9533 39.2423 86.1046 39.7981 86.5412 40.0478L90.9259 42.9866C91.804 43.4542 92.3548 44.3658 92.3611 45.3606V45.514L76.2194 59.1911L70.3422 53.061C69.4909 52.173 68.3137 51.6705 67.0834 51.6705C65.853 51.6705 64.6755 52.173 63.8245 53.061L57.9473 59.1911L41.8056 45.514V45.3514C41.8077 44.3675 42.3434 43.4619 43.2049 42.9866L47.5896 40.0478C48.0258 39.7981 48.1775 39.2423 47.9281 38.8065C47.6792 38.3699 47.123 38.2182 46.6868 38.4679L42.3293 41.4067C40.8908 42.2023 39.9986 43.7169 40 45.3606V68.9862C40 71.4791 42.021 73.5001 44.5139 73.5001H89.6528C92.1457 73.5001 94.1667 71.4791 94.1667 68.9862V45.3606C94.1681 43.7169 93.2759 42.2023 91.8375 41.4067ZM41.8056 68.9862V47.8884L56.6926 60.5269L48.125 69.4288L45.9312 71.6945H44.5139C43.0183 71.6945 41.8056 70.4818 41.8056 68.9862ZM48.4318 71.6945L65.1244 54.2709C66.2084 53.1947 67.9583 53.1947 69.0423 54.2709L85.7349 71.6945H48.4318ZM92.3611 68.9862C92.3611 70.4818 91.1484 71.6945 89.6528 71.6945H88.2355L85.9151 69.275L77.4741 60.5001L92.3611 47.8884V68.9862Z"
                  fill="#333333"
                />
                <path
                  d="M77.9169 32.875H60.7641C60.2655 32.875 59.8613 33.2791 59.8613 33.7778C59.8613 34.2764 60.2655 34.6806 60.7641 34.6806H77.9169C78.4155 34.6806 78.8197 34.2764 78.8197 33.7778C78.8197 33.2791 78.4155 32.875 77.9169 32.875Z"
                  fill="#333333"
                />
                <path
                  d="M78.8194 40.0972C78.8194 39.5986 78.4153 39.1945 77.9166 39.1945H56.2499C55.7513 39.1945 55.3472 39.5986 55.3472 40.0972C55.3472 40.5959 55.7513 41 56.2499 41H77.9166C78.4153 41 78.8194 40.5959 78.8194 40.0972Z"
                  fill="#666667"
                />
                <path
                  d="M56.2499 46.4166C55.7513 46.4166 55.3472 46.8208 55.3472 47.3194C55.3472 47.818 55.7513 48.2222 56.2499 48.2222H75.2083C75.7069 48.2222 76.1111 47.818 76.1111 47.3194C76.1111 46.8208 75.7069 46.4166 75.2083 46.4166H56.2499Z"
                  fill="#333333"
                />
                <path
                  d="M94.1665 80C99.5513 80 103.917 75.6348 103.917 70.25C103.917 64.8652 99.5513 60.5 94.1665 60.5C88.7817 60.5 84.4165 64.8652 84.4165 70.25C84.4165 75.6348 88.7817 80 94.1665 80Z"
                  fill="#27AE60"
                  stroke="#333333"
                />
                <path
                  fill-rule="evenodd"
                  clip-rule="evenodd"
                  d="M99.549 65.9166C99.2433 65.9166 98.9585 66.0398 98.7461 66.2646L92.8931 72.4614L90.6703 70.1073C90.4583 69.8828 90.1734 69.7596 89.8677 69.7596C89.5621 69.7596 89.2772 69.8832 89.0655 70.107C88.6449 70.5515 88.6449 71.2475 89.0652 71.6914L92.0906 74.895C92.3026 75.1192 92.5875 75.2427 92.8928 75.2427C93.1984 75.2427 93.4833 75.1195 93.696 74.895L100.351 67.8491C100.772 67.4045 100.772 66.7085 100.351 66.264C100.139 66.0398 99.8546 65.9166 99.549 65.9166Z"
                  fill="white"
                />
              </svg>