<?xml version="1.0" encoding="UTF-8"?>
<svg 
  width="170" 
  height="78" 
  viewBox="0 0 170 78" 
  fill="none" 
  xmlns="http://www.w3.org/2000/svg"
>
  <path 
    fill-rule="evenodd" 
    clip-rule="evenodd" 
    d="M49.077 16.6699C46.048 16.6699 43.592 19.1259 43.592 22.1549C43.592 25.1839 46.048 27.6389 49.077 27.6389H17.737C14.708 27.6389 12.253 30.0939 12.253 33.1239C12.253 36.1529 14.708 38.6079 17.737 38.6079H37.325C40.354 38.6079 42.809 41.0639 42.809 44.0929C42.809 47.1219 40.354 49.5779 37.325 49.5779H5.984C2.955 49.5779 0.5 52.0339 0.5 55.0619C0.5 58.0909 2.955 60.5459 5.984 60.5459H36.541C33.512 60.5459 31.057 63.0019 31.057 66.0309C31.057 69.0599 33.512 71.5159 36.541 71.5159H150.934C153.962 71.5159 156.417 69.0599 156.417 66.0309C156.417 63.0019 153.962 60.5459 150.934 60.5459H146.232C143.203 60.5459 140.747 58.0909 140.747 55.0619C140.747 52.0339 143.203 49.5779 146.232 49.5779H161.119C164.148 49.5779 166.604 47.1219 166.604 44.0929C166.604 41.0639 164.148 38.6079 161.119 38.6079H143.88C146.911 38.6079 149.366 36.1529 149.366 33.1239C149.366 30.0939 146.911 27.6389 143.88 27.6389H93.737C96.766 27.6389 99.221 25.1839 99.221 22.1549C99.221 19.1259 96.766 16.6699 93.737 16.6699H49.077ZM158.768 66.0309C158.768 69.0599 161.224 71.5159 164.253 71.5159C167.282 71.5159 169.737 69.0599 169.737 66.0309C169.737 63.0019 167.282 60.5459 164.253 60.5459C161.224 60.5459 158.768 63.0019 158.768 66.0309Z" 
    fill="#333333" 
    fill-opacity="0.1"
  />
  <mask 
    id="mask0_12331:25282" 
    masktype="alpha" 
    maskUnits="userSpaceOnUse" 
    x="0" 
    y="16" 
    width="170" 
    height="56"
  >
    <path 
      fill-rule="evenodd" 
      clip-rule="evenodd" 
      d="M49.077 16.6699C46.048 16.6699 43.592 19.1259 43.592 22.1549C43.592 25.1839 46.048 27.6389 49.077 27.6389H17.737C14.708 27.6389 12.253 30.0939 12.253 33.1239C12.253 36.1529 14.708 38.6079 17.737 38.6079H37.325C40.354 38.6079 42.809 41.0639 42.809 44.0929C42.809 47.1219 40.354 49.5779 37.325 49.5779H5.984C2.955 49.5779 0.5 52.0339 0.5 55.0619C0.5 58.0909 2.955 60.5459 5.984 60.5459H36.541C33.512 60.5459 31.057 63.0019 31.057 66.0309C31.057 69.0599 33.512 71.5159 36.541 71.5159H150.934C153.962 71.5159 156.417 69.0599 156.417 66.0309C156.417 63.0019 153.962 60.5459 150.934 60.5459H146.232C143.203 60.5459 140.747 58.0909 140.747 55.0619C140.747 52.0339 143.203 49.5779 146.232 49.5779H161.119C164.148 49.5779 166.604 47.1219 166.604 44.0929C166.604 41.0639 164.148 38.6079 161.119 38.6079H143.88C146.911 38.6079 149.366 36.1529 149.366 33.1239C149.366 30.0939 146.911 27.6389 143.88 27.6389H93.737C96.766 27.6389 99.221 25.1839 99.221 22.1549C99.221 19.1259 96.766 16.6699 93.737 16.6699H49.077ZM158.768 66.0309C158.768 69.0599 161.224 71.5159 164.253 71.5159C167.282 71.5159 169.737 69.0599 169.737 66.0309C169.737 63.0019 167.282 60.5459 164.253 60.5459C161.224 60.5459 158.768 63.0019 158.768 66.0309Z" 
      fill="white"
    />
  </mask>
  <g mask="url(#mask0_12331:25282)">
  </g>
  <mask 
    id="mask1_12331:25282" 
    masktype="alpha"
    maskUnits="userSpaceOnUse" 
    x="42" 
    y="11" 
    width="97" 
    height="66"
  >
    <path 
      fill-rule="evenodd" 
      clip-rule="evenodd" 
      d="M60.0449 37.8245C60.0449 39.4425 60.1909 41.0275 60.4669 42.5655C60.0689 42.5385 59.6669 42.5255 59.2619 42.5255C49.7429 42.5255 42.0259 50.0675 42.0259 59.3705C42.0259 68.6745 49.7429 76.2155 59.2619 76.2155H72.1969H116.459V76.1995C128.74 75.2185 138.398 65.0435 138.398 52.7105C138.398 39.7295 127.698 29.2055 114.5 29.2055C113.637 29.2055 112.784 29.2505 111.945 29.3385C108.402 18.7865 98.4299 11.1855 86.6859 11.1855C71.9729 11.1855 60.0449 23.1115 60.0449 37.8245ZM68.6619 76.2155H63.2049H68.6619Z" 
      fill="white"
    />
  </mask>
  <g mask="url(#mask1_12331:25282)">
    <path 
      fill-rule="evenodd" 
      clip-rule="evenodd" 
      d="M37.0259 81.2165H143.396V6.18555H37.0259V81.2165Z" 
      fill="#FFE4D7"
    />
  </g>
  <path 
    d="M59.2624 77.4661C59.9527 77.4661 60.5124 76.9064 60.5124 76.2161C60.5124 75.5257 59.9527 74.9661 59.2624 74.9661V77.4661ZM60.4664 42.5661L60.3816 43.8132L61.9784 43.9218L61.6969 42.3462L60.4664 42.5661ZM111.945 29.3381L110.76 29.7361L111.079 30.6847L112.074 30.5814L111.945 29.3381ZM116.458 76.1991L116.359 74.953L115.208 75.0448V76.1991H116.458ZM116.458 76.2161V77.4661H117.708V76.2161H116.458ZM72.1974 74.9661C71.507 74.9661 70.9474 75.5257 70.9474 76.2161C70.9474 76.9064 71.507 77.4661 72.1974 77.4661V74.9661ZM68.6614 77.4661C69.3517 77.4661 69.9114 76.9064 69.9114 76.2161C69.9114 75.5257 69.3517 74.9661 68.6614 74.9661V77.4661ZM63.2044 74.9661C62.514 74.9661 61.9544 75.5257 61.9544 76.2161C61.9544 76.9064 62.514 77.4661 63.2044 77.4661V74.9661ZM59.2624 74.9661C50.4056 74.9661 43.2764 67.9569 43.2764 59.3711H40.7764C40.7764 69.3913 49.0792 77.4661 59.2624 77.4661V74.9661ZM43.2764 59.3711C43.2764 50.7842 50.4056 43.7751 59.2624 43.7751V41.2751C49.0791 41.2751 40.7764 49.3499 40.7764 59.3711H43.2764ZM59.2624 43.7751C59.6386 43.7751 60.0123 43.7881 60.3816 43.8132L60.5512 41.3189C60.1264 41.2901 59.6961 41.2751 59.2624 41.2751V43.7751ZM61.6969 42.3462C61.4346 40.8787 61.2964 39.3682 61.2964 37.8241H58.7964C58.7964 39.5179 58.9481 41.1755 59.2359 42.7859L61.6969 42.3462ZM61.2964 37.8241C61.2964 23.8024 72.6627 12.4351 86.6864 12.4351V9.93506C71.282 9.93506 58.7964 22.4217 58.7964 37.8241H61.2964ZM86.6864 12.4351C97.8773 12.4351 107.382 19.6787 110.76 29.7361L113.13 28.94C109.421 17.8955 98.9835 9.93506 86.6864 9.93506V12.4351ZM112.074 30.5814C112.87 30.4988 113.68 30.4561 114.499 30.4561V27.9561C113.593 27.9561 112.697 28.0033 111.816 28.0947L112.074 30.5814ZM114.499 30.4561C127.028 30.4561 137.147 40.4389 137.147 52.7111H139.647C139.647 39.0192 128.369 27.9561 114.499 27.9561V30.4561ZM137.147 52.7111C137.147 64.3739 128.011 74.0234 116.359 74.953L116.558 77.4451C129.472 76.4147 139.647 65.7142 139.647 52.7111H137.147ZM115.208 76.1991V76.2161H117.708V76.1991H115.208ZM116.458 74.9661H72.1974V77.4661H116.458V74.9661ZM68.6614 74.9661H63.2044V77.4661H68.6614V74.9661Z" 
    fill="#333333"
  />
  <mask 
    id="mask2_12331:25282" 
    masktype="alpha"
    maskUnits="userSpaceOnUse" 
    x="82" 
    y="56" 
    width="10" 
    height="10"
  >
    <path 
      fill-rule="evenodd" 
      clip-rule="evenodd" 
      d="M82.769 60.9379C82.769 63.3179 84.697 65.2469 87.077 65.2469C89.456 65.2469 91.387 63.3179 91.387 60.9379C91.387 58.5579 89.456 56.6289 87.077 56.6289C84.697 56.6289 82.769 58.5579 82.769 60.9379Z" 
      fill="white"
    />
  </mask>
  <g mask="url(#mask2_12331:25282)">
    <path 
      fill-rule="evenodd" 
      clip-rule="evenodd" 
      d="M77.7681 70.2469H96.3861V51.6289H77.7681V70.2469Z" 
      fill="white"
    />
  </g>
  <path 
    fill-rule="evenodd" 
    clip-rule="evenodd" 
    d="M87.0771 65.2474C89.4571 65.2474 91.3871 63.3184 91.3871 60.9384C91.3871 58.5584 89.4571 56.6284 87.0771 56.6284C84.6971 56.6284 82.7681 58.5584 82.7681 60.9384C82.7681 63.3184 84.6971 65.2474 87.0771 65.2474Z" 
    stroke="#333333" 
    stroke-width="2.5"
  />
  <path 
    d="M74.9336 51.9274L80.4176 47.6234L74.9336 43.5264" 
    stroke="#333333" 
    stroke-width="2.5" 
    stroke-linecap="round" 
    stroke-linejoin="round"
  />
  <path 
    d="M99.2213 51.9274L93.7363 47.6234L99.2213 43.5264" 
    stroke="#333333" 
    stroke-width="2.5" 
    stroke-linecap="round" 
    stroke-linejoin="round"
  />
  <path 
    d="M94.5205 19.0205C99.6215 20.3705 103.647 24.3585 105.052 29.4355" 
    stroke="#333333" 
    stroke-width="2.5" 
    stroke-linecap="round"
  />
  <path 
    fill-rule="evenodd" 
    clip-rule="evenodd" 
    d="M110.975 5.701C112.273 5.701 113.326 4.649 113.326 3.35C113.326 2.052 112.273 1 110.975 1C109.677 1 108.623 2.052 108.623 3.35C108.623 4.649 109.677 5.701 110.975 5.701Z" 
    stroke="#333333" 
    stroke-opacity="0.33" 
    stroke-width="2"
  />
  <mask 
    id="mask3_12331:25282" 
    masktype="alpha"
    maskUnits="userSpaceOnUse" 
    x="132" 
    y="13" 
    width="6" 
    height="6"
  >
    <path 
      fill-rule="evenodd" 
      clip-rule="evenodd" 
      d="M132.912 15.8871C132.912 17.1851 133.965 18.2371 135.263 18.2371C136.562 18.2371 137.613 17.1851 137.613 15.8871C137.613 14.5881 136.562 13.5361 135.263 13.5361C133.965 13.5361 132.912 14.5881 132.912 15.8871Z" 
      fill="white"
    />
  </mask>
  <g mask="url(#mask3_12331:25282)">
    <path 
      fill-rule="evenodd" 
      clip-rule="evenodd" 
      d="M127.912 23.2371H142.613V8.53613H127.912V23.2371Z" 
      fill="#333333"
    />
  </g>
  <path 
    d="M124.584 12.6622C125.072 12.174 125.072 11.3826 124.584 10.8944C124.096 10.4063 123.304 10.4063 122.816 10.8944L124.584 12.6622ZM116.267 17.4434C115.779 17.9316 115.779 18.723 116.267 19.2112C116.755 19.6994 117.547 19.6994 118.035 19.2112L116.267 17.4434ZM117.937 10.8946C117.449 10.4063 116.658 10.4062 116.169 10.8943C115.681 11.3824 115.681 12.1738 116.169 12.6621L117.937 10.8946ZM122.716 19.2111C123.204 19.6993 123.996 19.6994 124.484 19.2113C124.972 18.7233 124.972 17.9318 124.484 17.4436L122.716 19.2111ZM122.816 10.8944L116.267 17.4434L118.035 19.2112L124.584 12.6622L122.816 10.8944ZM116.169 12.6621L122.716 19.2111L124.484 17.4436L117.937 10.8946L116.169 12.6621Z" 
    fill="#333333" 
    fill-opacity="0.33"
  />
  <path 
    d="M48.7109 26.6397C49.199 26.1516 49.199 25.3601 48.7109 24.872C48.2227 24.3838 47.4312 24.3838 46.9431 24.872L48.7109 26.6397ZM42.2421 29.573C41.7539 30.0611 41.7539 30.8526 42.2421 31.3407C42.7302 31.8289 43.5217 31.8289 44.0099 31.3407L42.2421 29.573ZM44.0099 24.872C43.5217 24.3838 42.7302 24.3838 42.2421 24.872C41.7539 25.3601 41.7539 26.1516 42.2421 26.6397L44.0099 24.872ZM46.9431 31.3407C47.4312 31.8289 48.2227 31.8289 48.7109 31.3407C49.199 30.8526 49.199 30.0611 48.7109 29.573L46.9431 31.3407ZM46.9431 24.872L42.2421 29.573L44.0099 31.3407L48.7109 26.6397L46.9431 24.872ZM42.2421 26.6397L46.9431 31.3407L48.7109 29.573L44.0099 24.872L42.2421 26.6397Z" 
    fill="#333333" 
    fill-opacity="0.33"
  />
  <g opacity="0.69">
    <mask 
      id="mask4_12331:25282" 
      masktype="alpha"
      maskUnits="userSpaceOnUse" 
      x="51" 
      y="15" 
      width="6" 
      height="6"
    >
      <path 
        fill-rule="evenodd" 
        clip-rule="evenodd" 
        d="M51.4282 18.2367C51.4282 19.5357 52.4802 20.5877 53.7782 20.5877C55.0772 20.5877 56.1292 19.5357 56.1292 18.2367C56.1292 16.9387 55.0772 15.8867 53.7782 15.8867C52.4802 15.8867 51.4282 16.9387 51.4282 18.2367Z" 
        fill="white"
      />
    </mask>
    <g mask="url(#mask4_12331:25282)">
      <path 
        fill-rule="evenodd" 
        clip-rule="evenodd" 
        d="M46.4282 25.5877H61.1292V10.8867H46.4282V25.5877Z" 
        fill="#333333"
      />
    </g>
  </g>
</svg>