<?xml version="1.0" encoding="UTF-8"?>
<svg 
    width="22" 
    height="22" 
    viewBox="0 0 22 22" 
    fill="none" 
    xmlns="http://www.w3.org/2000/svg"
>
    <path 
        fill-rule="evenodd" 
        clip-rule="evenodd" 
        d="M12.0667 6.73343C12.9157 6.73343 13.7296 7.07476 14.3291 7.6721C14.9296 8.26836 15.2667 9.0801 15.2667 9.93343C15.2667 10.2214 15.3787 10.4881 15.5792 10.6908C15.7787 10.8828 16.0507 11.0001 16.3333 11.0001C16.616 11.0001 16.888 10.8828 17.0875 10.6908C17.288 10.4881 17.4 10.2214 17.4 9.93343C17.4 8.51476 16.8379 7.15903 15.8384 6.15743C14.8379 5.16543 13.4811 4.6001 12.0667 4.6001C11.784 4.6001 11.512 4.71743 11.3125 4.90943C11.112 5.11103 11 5.3777 11 5.66676C11 5.95476 11.112 6.22143 11.3125 6.4241C11.512 6.6161 11.784 6.73343 12.0667 6.73343Z" 
        fill="#D71920"
    />
    <path 
        fill-rule="evenodd" 
        clip-rule="evenodd" 
        d="M12.0667 2.46683C14.0475 2.46683 15.9461 3.25616 17.3467 4.6535C18.7472 6.05083 19.5333 7.9495 19.5333 9.9335C19.5333 10.2215 19.6453 10.4882 19.8459 10.6908C20.0453 10.8828 20.3173 11.0002 20.6 11.0002C20.8827 11.0002 21.1547 10.8828 21.3541 10.6908C21.5547 10.4882 21.6667 10.2215 21.6667 9.9335C21.6667 7.38416 20.6555 4.9415 18.8549 3.1495C17.0544 1.34683 14.6128 0.333496 12.0667 0.333496C11.784 0.333496 11.512 0.450829 11.3125 0.642829C11.112 0.844429 11 1.1111 11 1.40016C11 1.68816 11.112 1.95483 11.3125 2.1575C11.512 2.3495 11.784 2.46683 12.0667 2.46683Z" 
        fill="#D71920"
    />
    <mask 
        id="mask0_12464:67" 
        masktype="alpha" 
        maskUnits="userSpaceOnUse" 
        x="0" 
        y="0" 
        width="22" 
        height="22"
    >
        <path 
            fill-rule="evenodd" 
            clip-rule="evenodd" 
            d="M0.333496 0.333496H21.6667V21.6667H0.333496V0.333496Z" 
            fill="white"
        />
    </mask>
    <g mask="url(#mask0_12464:67)">
        <path 
            fill-rule="evenodd" 
            clip-rule="evenodd" 
            d="M16.7602 19.5335C12.9703 19.5335 9.33616 18.0188 6.6567 15.3415C3.97616 12.6642 2.47003 9.02576 2.46683 5.24016C2.47003 4.50416 2.7623 3.80016 3.28176 3.2775C3.80123 2.7655 4.50523 2.46683 5.24016 2.46683H5.59216L6.7335 7.41616L6.1575 7.71483C5.24016 8.19483 4.51483 8.57776 4.89883 9.41083C5.5239 11.1815 6.53616 12.7922 7.86096 14.1148C9.18576 15.4482 10.79 16.4722 12.5575 17.1015C13.4535 17.4642 13.8055 16.7922 14.2855 15.8642L14.5948 15.2775L19.5335 16.4082V16.7591C19.5303 17.4962 19.238 18.2002 18.7186 18.7228C18.1991 19.2348 17.4951 19.5335 16.7602 19.5335ZM21.4002 15.1708C21.3415 15.0002 21.2402 14.8508 21.1058 14.7228C20.9714 14.6055 20.8082 14.5202 20.6322 14.4775L14.2322 13.0162C14.0583 12.9735 13.878 12.9842 13.7063 13.0258C13.5346 13.0802 13.3778 13.1655 13.2508 13.2924C13.1015 13.4322 13.0908 13.4428 12.3975 14.7655C10.0967 13.7095 8.2535 11.8535 7.20283 9.5495C8.5575 8.86683 8.56816 8.86683 8.70683 8.70683C8.83163 8.57776 8.9223 8.41883 8.9703 8.24816C9.0183 8.0775 9.02363 7.89616 8.98416 7.7255L7.52283 1.40016C7.4823 1.21883 7.39696 1.05883 7.27536 0.930829C7.15376 0.792163 7.00123 0.696163 6.8295 0.632163C6.5799 0.546829 6.32283 0.482829 6.0615 0.440163C5.79163 0.376163 5.51643 0.344163 5.24016 0.333496C3.93883 0.333496 2.69083 0.844429 1.7703 1.7735C0.850829 2.69083 0.333496 3.93883 0.333496 5.24016C0.338829 9.59216 2.0711 13.7735 5.15056 16.8444C8.23003 19.9282 12.405 21.6562 16.7602 21.6668C17.4044 21.6668 18.0423 21.5388 18.6375 21.2924C19.2327 21.0482 19.7746 20.6855 20.23 20.2258C20.6855 19.7778 21.0471 19.2348 21.2935 18.6375C21.5399 18.0402 21.6668 17.4002 21.6668 16.7591C21.6668 16.4924 21.6455 16.2162 21.6028 15.9495C21.558 15.6828 21.4898 15.4258 21.4002 15.1708Z" 
            fill="#002659"
        />
    </g>
</svg>
