<?xml version="1.0" encoding="UTF-8"?>
<svg width="170" height="68" viewBox="0 0 170 68" fill="none" xmlns="http://www.w3.org/2000/svg">
<path fill-rule="evenodd" clip-rule="evenodd" d="M48.577 11C45.548 11 43.092 13.456 43.092 16.485C43.092 19.514 45.548 21.969 48.577 21.969H17.237C14.208 21.969 11.753 24.424 11.753 27.454C11.753 30.483 14.208 32.938 17.237 32.938H36.825C39.854 32.938 42.309 35.394 42.309 38.423C42.309 41.452 39.854 43.908 36.825 43.908H5.484C2.455 43.908 0 46.364 0 49.392C0 52.421 2.455 54.876 5.484 54.876H36.041C33.012 54.876 30.557 57.332 30.557 60.361C30.557 63.39 33.012 65.846 36.041 65.846H150.434C153.462 65.846 155.917 63.39 155.917 60.361C155.917 57.332 153.462 54.876 150.434 54.876H145.732C142.703 54.876 140.247 52.421 140.247 49.392C140.247 46.364 142.703 43.908 145.732 43.908H160.619C163.648 43.908 166.104 41.452 166.104 38.423C166.104 35.394 163.648 32.938 160.619 32.938H143.38C146.411 32.938 148.866 30.483 148.866 27.454C148.866 24.424 146.411 21.969 143.38 21.969H93.237C96.266 21.969 98.721 19.514 98.721 16.485C98.721 13.456 96.266 11 93.237 11H48.577ZM158.268 60.361C158.268 63.39 160.724 65.846 163.753 65.846C166.782 65.846 169.237 63.39 169.237 60.361C169.237 57.332 166.782 54.876 163.753 54.876C160.724 54.876 158.268 57.332 158.268 60.361Z" fill="#333333" fill-opacity="0.1"/>
<path d="M122.458 20.0311C123.756 20.0311 124.809 18.9791 124.809 17.6801C124.809 16.3821 123.756 15.3301 122.458 15.3301C121.16 15.3301 120.106 16.3821 120.106 17.6801C120.106 18.9791 121.16 20.0311 122.458 20.0311Z" stroke="#333333" stroke-opacity="0.33" stroke-width="2"/>
<path fill-rule="evenodd" clip-rule="evenodd" d="M150.396 25.2172C150.396 26.5152 151.449 27.5672 152.747 27.5672C154.046 27.5672 155.097 26.5152 155.097 25.2172C155.097 23.9182 154.046 22.8662 152.747 22.8662C151.449 22.8662 150.396 23.9182 150.396 25.2172Z" fill="#333333"/>
<path d="M142.068 21.9929C142.556 21.5049 142.556 20.7129 142.068 20.2249C141.579 19.7369 140.788 19.7369 140.3 20.2249L142.068 21.9929ZM133.751 26.7739C133.263 27.2619 133.263 28.0539 133.751 28.5419C134.239 29.0299 135.03 29.0299 135.519 28.5419L133.751 26.7739ZM135.421 20.2249C134.933 19.7369 134.141 19.7369 133.653 20.2249C133.165 20.7129 133.165 21.5049 133.653 21.9929L135.421 20.2249ZM140.2 28.5419C140.688 29.0299 141.479 29.0299 141.967 28.5419C142.456 28.0539 142.456 27.2619 141.968 26.7739L140.2 28.5419ZM140.3 20.2249L133.751 26.7739L135.519 28.5419L142.068 21.9929L140.3 20.2249ZM133.653 21.9929L140.2 28.5419L141.968 26.7749L135.421 20.2259L133.653 21.9929Z" fill="#333333" fill-opacity="0.33"/>
<path d="M31.7284 56.4369L33.1954 54.9699C33.6834 54.4819 33.6834 53.6899 33.1954 53.2019C32.7074 52.7139 31.9154 52.7139 31.4274 53.2019L29.9604 54.6689L28.4934 53.2019C28.0054 52.7139 27.2134 52.7139 26.7254 53.2019C26.2374 53.6899 26.2374 54.4819 26.7254 54.9699L28.1924 56.4369L26.7254 57.9039C26.2374 58.3919 26.2374 59.1839 26.7254 59.6719C27.2134 60.1599 28.0054 60.1599 28.4934 59.6719L29.9604 58.2049L31.4274 59.6719C31.9154 60.1599 32.7074 60.1599 33.1954 59.6719C33.6834 59.1839 33.6834 58.3919 33.1954 57.9039L31.7284 56.4369Z" fill="#333333" fill-opacity="0.33"/>
<path opacity="0.69" fill-rule="evenodd" clip-rule="evenodd" d="M35.9121 46.5668C35.9121 47.8658 36.9641 48.9178 38.2621 48.9178C39.5611 48.9178 40.6131 47.8658 40.6131 46.5668C40.6131 45.2688 39.5611 44.2168 38.2621 44.2168C36.9641 44.2168 35.9121 45.2688 35.9121 46.5668Z" fill="#333333"/>
<path fill-rule="evenodd" clip-rule="evenodd" d="M69.4541 0.796875C69.4541 23.6949 69.4541 36.014 69.4541 37.754L78 44.6562C78 44.6562 84.6017 37.2213 87.0832 37.2213C89.3577 37.2213 92.9147 42.0351 96.111 44.7914L104.864 37.754V8.96832H96.6929V0.796875H69.4541Z" fill="white"/>
<path fill-rule="evenodd" clip-rule="evenodd" d="M103.976 36.9527C103.976 37.4552 96.174 44.2001 95.6709 44.2001C92.4997 41.5724 89.4995 36.9527 87.0727 36.9527C85.7289 36.9527 82.9391 39.3685 78.7033 44.2001C77.5286 45.54 70.3999 38.1637 70.3999 38.0087V2.86078C70.3999 2.35897 70.8088 1.95008 71.3112 1.95008H95.9233L95.932 9.02793C95.9326 9.38039 96.2187 9.66714 96.5718 9.66714H103.976V36.9527ZM105.373 7.54292C105.29 7.44214 105.239 7.39107 105.066 7.22015L98.3964 0.646224C97.9735 0.229481 97.4138 0 96.8193 0H70.9139C69.6745 0 68.6667 1.00849 68.6667 2.24714V38.3046C68.4317 38.4637 77.2579 45.9691 78.4972 45.9691C82.338 40.4682 85.2252 37.7177 87.1588 37.7177C89.0934 37.7177 92.0084 40.4682 95.9039 45.9691C97.1439 45.9691 105.736 37.894 105.736 37.2213V8.57321C105.736 8.16327 105.625 7.84595 105.373 7.54292Z" fill="#333333"/>
<path fill-rule="evenodd" clip-rule="evenodd" d="M103.76 8.2514L97.4832 8.25207L97.4766 2.05859L103.76 8.2514Z" fill="white"/>
<path d="M111.837 26.4067L107.444 23.4679C107.007 23.2182 106.452 23.3699 106.203 23.8065C105.953 24.2423 106.105 24.7981 106.541 25.0478L110.926 27.9866C111.804 28.4542 112.355 29.3658 112.361 30.3606V30.514L96.2194 44.1911L90.3422 38.061C89.4909 37.173 88.3137 36.6705 87.0834 36.6705C85.853 36.6705 84.6755 37.173 83.8245 38.061L77.9473 44.1911L61.8056 30.514V30.3514C61.8077 29.3675 62.3434 28.4619 63.2049 27.9866L67.5896 25.0478C68.0258 24.7981 68.1775 24.2423 67.9281 23.8065C67.6792 23.3699 67.123 23.2182 66.6868 23.4679L62.3293 26.4067C60.8908 27.2023 59.9986 28.7169 60 30.3606V53.9862C60 56.4791 62.021 58.5001 64.5139 58.5001H109.653C112.146 58.5001 114.167 56.4791 114.167 53.9862V30.3606C114.168 28.7169 113.276 27.2023 111.837 26.4067ZM61.8056 53.9862V32.8884L76.6926 45.5269L68.125 54.4288L65.9312 56.6945H64.5139C63.0183 56.6945 61.8056 55.4818 61.8056 53.9862ZM68.4318 56.6945L85.1244 39.2709C86.2084 38.1947 87.9583 38.1947 89.0423 39.2709L105.735 56.6945H68.4318ZM112.361 53.9862C112.361 55.4818 111.148 56.6945 109.653 56.6945H108.236L105.915 54.275L97.4741 45.5001L112.361 32.8884V53.9862Z" fill="#333333"/>
<path d="M97.9169 17.875H80.7641C80.2655 17.875 79.8613 18.2791 79.8613 18.7778C79.8613 19.2764 80.2655 19.6806 80.7641 19.6806H97.9169C98.4155 19.6806 98.8197 19.2764 98.8197 18.7778C98.8197 18.2791 98.4155 17.875 97.9169 17.875Z" fill="#333333"/>
<path d="M98.8189 25.0976C98.8189 24.599 98.4148 24.1948 97.9161 24.1948H76.2495C75.7508 24.1948 75.3467 24.599 75.3467 25.0976C75.3467 25.5962 75.7508 26.0004 76.2495 26.0004H97.9161C98.4148 26.0004 98.8189 25.5962 98.8189 25.0976Z" fill="#666667"/>
<path d="M76.2495 31.417C75.7508 31.417 75.3467 31.8211 75.3467 32.3198C75.3467 32.8184 75.7508 33.2225 76.2495 33.2225H95.2078C95.7064 33.2225 96.1106 32.8184 96.1106 32.3198C96.1106 31.8211 95.7064 31.417 95.2078 31.417H76.2495Z" fill="#333333"/>
<path d="M112.166 67.0005C117.551 67.0005 121.916 62.6353 121.916 57.2505C121.916 51.8657 117.551 47.5005 112.166 47.5005C106.781 47.5005 102.416 51.8657 102.416 57.2505C102.416 62.6353 106.781 67.0005 112.166 67.0005Z" fill="#D71920" stroke="#333333"/>
<path d="M112.004 59.2786C111.18 60.0695 110.391 60.836 109.588 61.5884C109.414 61.754 109.212 61.8885 108.992 61.9862C108.524 62.1871 107.95 62.0414 107.642 61.6844C107.256 61.2351 107.187 60.6701 107.478 60.1918C107.575 60.032 107.691 59.885 107.824 59.7542C108.597 59.0046 109.377 58.2624 110.174 57.4997C110.111 57.4304 110.056 57.3681 109.999 57.309C109.263 56.5561 108.523 55.8065 107.792 55.0457C107.254 54.4867 107.208 53.88 107.644 53.2737C107.928 52.8774 108.565 52.6773 109.008 52.8811C109.249 52.9885 109.47 53.1365 109.661 53.3187C110.442 54.0936 111.204 54.8878 112.006 55.7081C112.193 55.5067 112.368 55.3085 112.554 55.1215C113.16 54.5134 113.769 53.908 114.381 53.3051C114.941 52.7551 115.557 52.7083 116.171 53.1594C116.554 53.4405 116.75 54.0965 116.545 54.527C116.435 54.7666 116.286 54.9868 116.106 55.1792C115.403 55.9016 114.683 56.6049 113.97 57.316C113.916 57.3699 113.865 57.4271 113.799 57.4969C114.127 57.8356 114.446 58.1659 114.767 58.4943C115.225 58.9629 115.688 59.4276 116.142 59.8999C116.595 60.3721 116.691 60.9119 116.43 61.4403C116.354 61.5951 116.247 61.7322 116.115 61.8429C115.982 61.9535 115.828 62.0352 115.663 62.0826C115.497 62.1301 115.323 62.1423 115.152 62.1184C114.982 62.0945 114.818 62.0351 114.671 61.944C114.518 61.8513 114.376 61.7402 114.25 61.6132C113.547 60.903 112.851 60.1861 112.154 59.4703C112.101 59.4091 112.051 59.3451 112.004 59.2786Z" fill="white"/>
</svg>
