<?xml version="1.0" encoding="UTF-8"?>
<svg width="170" height="97" viewBox="0 0 170 97" fill="none" xmlns="http://www.w3.org/2000/svg">
<path fill-rule="evenodd" clip-rule="evenodd" d="M48.577 15.6699C45.548 15.6699 43.092 18.1259 43.092 21.1549C43.092 24.1839 45.548 26.6389 48.577 26.6389H17.237C14.208 26.6389 11.753 29.0939 11.753 32.1239C11.753 35.1529 14.208 37.6079 17.237 37.6079H36.825C39.854 37.6079 42.309 40.0639 42.309 43.0929C42.309 46.1219 39.854 48.5779 36.825 48.5779H5.484C2.455 48.5779 0 51.0339 0 54.0619C0 57.0909 2.455 59.5459 5.484 59.5459H36.041C33.012 59.5459 30.557 62.0019 30.557 65.0309C30.557 68.0599 33.012 70.5159 36.041 70.5159H150.434C153.462 70.5159 155.917 68.0599 155.917 65.0309C155.917 62.0019 153.462 59.5459 150.434 59.5459H145.732C142.703 59.5459 140.247 57.0909 140.247 54.0619C140.247 51.0339 142.703 48.5779 145.732 48.5779H160.619C163.648 48.5779 166.104 46.1219 166.104 43.0929C166.104 40.0639 163.648 37.6079 160.619 37.6079H143.38C146.411 37.6079 148.866 35.1529 148.866 32.1239C148.866 29.0939 146.411 26.6389 143.38 26.6389H93.237C96.266 26.6389 98.721 24.1839 98.721 21.1549C98.721 18.1259 96.266 15.6699 93.237 15.6699H48.577ZM158.268 65.0309C158.268 68.0599 160.724 70.5159 163.753 70.5159C166.782 70.5159 169.237 68.0599 169.237 65.0309C169.237 62.0019 166.782 59.5459 163.753 59.5459C160.724 59.5459 158.268 62.0019 158.268 65.0309Z" fill="#D2D2D2" fill-opacity="0.5"/>
<path d="M116.352 5.701C117.65 5.701 118.703 4.649 118.703 3.35C118.703 2.052 117.65 1 116.352 1C115.054 1 114 2.052 114 3.35C114 4.649 115.054 5.701 116.352 5.701Z" stroke="#A5BCC4" stroke-width="2"/>
<path fill-rule="evenodd" clip-rule="evenodd" d="M144 21.351C144 22.649 145.053 23.701 146.351 23.701C147.65 23.701 148.701 22.649 148.701 21.351C148.701 20.052 147.65 19 146.351 19C145.053 19 144 20.052 144 21.351Z" fill="#69B4D4"/>
<path d="M136.781 8.134C137.269 7.646 137.269 6.854 136.781 6.366C136.292 5.878 135.501 5.878 135.013 6.366L136.781 8.134ZM128.464 12.916C127.976 13.404 127.976 14.196 128.464 14.684C128.952 15.172 129.743 15.172 130.232 14.684L128.464 12.916ZM130.134 6.367C129.646 5.879 128.854 5.879 128.366 6.367C127.878 6.855 127.878 7.647 128.366 8.135L130.134 6.367ZM134.913 14.683C135.401 15.171 136.192 15.171 136.68 14.683C137.169 14.195 137.169 13.403 136.681 12.915L134.913 14.683ZM135.013 6.367L128.464 12.916L130.232 14.684L136.781 8.135L135.013 6.367ZM128.366 8.134L134.913 14.683L136.681 12.916L130.134 6.367L128.366 8.134Z" fill="#A5BCC4"/>
<path d="M24.744 27.1059L26.211 25.6389C26.699 25.1509 26.699 24.3589 26.211 23.8709C25.723 23.3829 24.931 23.3829 24.443 23.8709L22.976 25.3379L21.509 23.8709C21.021 23.3829 20.229 23.3829 19.741 23.8709C19.253 24.3589 19.253 25.1509 19.741 25.6389L21.208 27.1059L19.741 28.5729C19.253 29.0609 19.253 29.8529 19.741 30.3409C20.229 30.8289 21.021 30.8289 21.509 30.3409L22.976 28.8739L24.443 30.3409C24.931 30.8289 25.723 30.8289 26.211 30.3409C26.699 29.8529 26.699 29.0609 26.211 28.5729L24.744 27.1059Z" fill="#A5BCC4"/>
<path opacity="0.69" fill-rule="evenodd" clip-rule="evenodd" d="M34.9277 11.2367C34.9277 12.5357 35.9797 13.5877 37.2777 13.5877C38.5767 13.5877 39.6287 12.5357 39.6287 11.2367C39.6287 9.93872 38.5767 8.88672 37.2777 8.88672C35.9797 8.88672 34.9277 9.93872 34.9277 11.2367Z" fill="#69B4D4"/>
<path fill-rule="evenodd" clip-rule="evenodd" d="M67.4512 1.7998V38.7998L76.001 45.7098L85.0312 38.2698L94.0312 45.8398L102.781 38.8398V9.9998H94.6912V1.7998H67.4512Z" fill="white"/>
<path d="M109.84 27.41L105.44 24.47C105.232 24.3626 104.99 24.34 104.765 24.4069C104.54 24.4737 104.349 24.6249 104.233 24.8288C104.117 25.0326 104.084 25.2735 104.141 25.5011C104.199 25.7286 104.342 25.9253 104.54 26.05L108.93 29C109.359 29.2309 109.718 29.5726 109.969 29.9895C110.221 30.4064 110.356 30.8831 110.36 31.37V31.52L103.74 37.13V9.57C103.745 9.20244 103.613 8.84628 103.37 8.57C103.277 8.45713 103.177 8.35025 103.07 8.25L96.4003 1.65C95.9796 1.23403 95.4119 1.00051 94.8203 1H68.9103C68.6153 0.999997 68.3232 1.05827 68.0508 1.17146C67.7783 1.28466 67.531 1.45055 67.3228 1.65961C67.1147 1.86868 66.9499 2.11679 66.8379 2.38972C66.7259 2.66264 66.669 2.955 66.6703 3.25V37.32L59.8103 31.51V31.35C59.8112 30.8699 59.9406 30.3988 60.185 29.9855C60.4294 29.5723 60.78 29.232 61.2003 29L65.5903 26.06C65.7891 25.9353 65.932 25.7386 65.9892 25.5111C66.0464 25.2835 66.0135 25.0426 65.8974 24.8388C65.7812 24.6349 65.5908 24.4837 65.3659 24.4169C65.141 24.35 64.8989 24.3726 64.6903 24.48L60.3303 27.42C59.6167 27.8139 59.0232 28.3939 58.6129 29.0983C58.2027 29.8026 57.991 30.6049 58.0003 31.42V55C58.0003 56.1961 58.4755 57.3433 59.3212 58.189C60.167 59.0348 61.3142 59.51 62.5103 59.51H107.65C108.243 59.5113 108.831 59.3956 109.379 59.1696C109.928 58.9435 110.426 58.6115 110.846 58.1926C111.266 57.7737 111.599 57.2761 111.826 56.7282C112.053 56.1804 112.17 55.5931 112.17 55V31.36C112.171 30.5534 111.955 29.7615 111.545 29.0667C111.135 28.372 110.546 27.7999 109.84 27.41ZM68.4003 3.86C68.4003 3.61865 68.4962 3.38719 68.6668 3.21653C68.8375 3.04588 69.069 2.95 69.3103 2.95H93.9203V10C93.9203 10.1697 93.9877 10.3325 94.1077 10.4525C94.2278 10.5726 94.3906 10.64 94.5603 10.64H102V38.61L94.2403 45.19L88.3603 39.06C87.9385 38.6208 87.4323 38.2714 86.8721 38.0327C86.3119 37.794 85.7092 37.6709 85.1003 37.6709C84.4914 37.6709 83.8887 37.794 83.3285 38.0327C82.7683 38.2714 82.2621 38.6208 81.8403 39.06L76.0003 45.19L68.4503 38.79L68.4003 3.86ZM63.9303 57.69H62.5103C62.1557 57.69 61.8046 57.6202 61.477 57.4845C61.1495 57.3488 60.8518 57.1499 60.6011 56.8992C60.3504 56.6485 60.1515 56.3508 60.0158 56.0232C59.8801 55.6957 59.8103 55.3446 59.8103 54.99V33.89L74.6903 46.53L66.1203 55.43L63.9303 57.69ZM66.4303 57.69L83.1203 40.27C83.6412 39.7522 84.3458 39.4615 85.0803 39.4615C85.8148 39.4615 86.5194 39.7522 87.0403 40.27L103.73 57.69H66.4303ZM110.36 55C110.36 55.3554 110.29 55.7073 110.154 56.0356C110.018 56.3638 109.818 56.6619 109.566 56.9127C109.314 57.1636 109.015 57.3623 108.687 57.4974C108.358 57.6325 108.006 57.7013 107.65 57.7H106.24L103.92 55.29L95.4703 46.5L110.36 33.89V55Z" fill="#333333"/>
<path fill-rule="evenodd" clip-rule="evenodd" d="M101.76 9.25006H95.4805V3.06006L101.76 9.25006Z" fill="white"/>
<path d="M95.9203 18.8799H78.7603C78.5217 18.8799 78.2927 18.9747 78.124 19.1435C77.9552 19.3123 77.8604 19.5412 77.8604 19.7799C77.8604 20.0186 77.9552 20.2475 78.124 20.4163C78.2927 20.5851 78.5217 20.6799 78.7603 20.6799H95.9203C96.0385 20.6799 96.1556 20.6566 96.2648 20.6114C96.374 20.5661 96.4732 20.4999 96.5567 20.4163C96.6403 20.3327 96.7066 20.2335 96.7518 20.1243C96.7971 20.0151 96.8204 19.8981 96.8204 19.7799C96.8204 19.6617 96.7971 19.5447 96.7518 19.4355C96.7066 19.3263 96.6403 19.2271 96.5567 19.1435C96.4732 19.0599 96.374 18.9936 96.2648 18.9484C96.1556 18.9032 96.0385 18.8799 95.9203 18.8799Z" fill="#333333"/>
<path d="M96.8203 26.0999C96.8216 25.9809 96.7993 25.8628 96.7547 25.7525C96.71 25.6421 96.6439 25.5417 96.5602 25.4571C96.4765 25.3724 96.3769 25.3052 96.267 25.2594C96.1572 25.2135 96.0393 25.1899 95.9203 25.1899H74.2503C74.0267 25.2135 73.8197 25.319 73.6692 25.4861C73.5188 25.6532 73.4355 25.8701 73.4355 26.0949C73.4355 26.3198 73.5188 26.5367 73.6692 26.7038C73.8197 26.8709 74.0267 26.9764 74.2503 26.9999H95.9203C96.159 26.9999 96.3879 26.9051 96.5567 26.7363C96.7255 26.5676 96.8203 26.3386 96.8203 26.0999Z" fill="#666667"/>
<path d="M74.2506 32.4199C74.1324 32.4199 74.0154 32.4432 73.9062 32.4884C73.797 32.5337 73.6978 32.6 73.6142 32.6835C73.5306 32.7671 73.4643 32.8663 73.4191 32.9755C73.3739 33.0847 73.3506 33.2017 73.3506 33.3199C73.3506 33.4381 73.3739 33.5551 73.4191 33.6643C73.4643 33.7735 73.5306 33.8727 73.6142 33.9563C73.6978 34.0399 73.797 34.1062 73.9062 34.1514C74.0154 34.1966 74.1324 34.2199 74.2506 34.2199H93.2506C93.4893 34.2199 93.7182 34.1251 93.887 33.9563C94.0558 33.7875 94.1506 33.5586 94.1506 33.3199C94.1506 33.0812 94.0558 32.8523 93.887 32.6835C93.7182 32.5147 93.4893 32.4199 93.2506 32.4199H74.2506Z" fill="#333333"/>
<g opacity="0.9">
<path d="M130.981 80.7593L145.32 95.0976C146.113 95.8907 147.399 95.8907 148.192 95.0976L150.391 92.8985C151.185 92.1054 151.185 90.8192 150.391 90.0258L136.053 75.6875L130.981 80.7593Z" fill="#A0ADB3"/>
<path d="M139.709 79.3448L134.638 84.4162L130.981 80.7599L136.053 75.6885L139.709 79.3448Z" fill="#D8D8E4"/>
<path d="M139.205 64.8175C139.205 75.3631 130.656 83.9114 120.111 83.9114C109.565 83.9114 101.017 75.3631 101.017 64.8175C101.017 54.2724 109.565 45.7236 120.111 45.7236C130.656 45.7236 139.205 54.2724 139.205 64.8175Z" fill="#CECECE"/>
<path d="M133.517 64.818C133.517 72.2222 127.515 78.2243 120.11 78.2243C112.706 78.2243 106.704 72.2222 106.704 64.818C106.704 57.4138 112.706 51.4116 120.11 51.4116C127.515 51.4116 133.517 57.4138 133.517 64.818Z" fill="#F5FCFF"/>
<path d="M132.072 68.1127C131.923 68.6533 132.241 69.2126 132.782 69.3616C133.322 69.5108 133.881 69.1934 134.03 68.6525L134.059 68.5475C134.132 68.2765 134.088 68.0019 133.958 67.7768C133.828 67.5518 133.612 67.376 133.341 67.3037C132.799 67.1585 132.242 67.4801 132.097 68.0218L132.072 68.1127Z" fill="#333333"/>
<path d="M106.198 61.082C104.14 68.7633 108.715 76.687 116.396 78.7454C122.35 80.3409 128.661 77.9778 132.099 72.8655C132.412 72.4003 132.288 71.7689 131.823 71.4559C131.358 71.1427 130.726 71.2667 130.413 71.7319C127.46 76.1244 122.038 78.1539 116.922 76.783C110.323 75.0148 106.392 68.2073 108.16 61.6075C109.929 55.0082 116.736 51.0778 123.336 52.8459C128.343 54.1875 132.016 58.5565 132.474 63.7175C132.524 64.276 133.017 64.689 133.576 64.6392C134.135 64.5894 134.547 64.0961 134.498 63.5374C134.309 61.4146 133.653 59.4077 132.627 57.6301C130.749 54.3771 127.63 51.8937 123.862 50.884C116.18 48.8258 108.256 53.4005 106.198 61.082Z" fill="#333333"/>
<path d="M151.108 89.3086L137.201 75.4015C139.113 72.3253 140.219 68.6984 140.219 64.8175C140.219 53.7289 131.198 44.708 120.11 44.708C109.021 44.708 100 53.7293 100 64.8175C100 75.9062 109.021 84.9271 120.11 84.9271C123.99 84.9271 127.617 83.821 130.693 81.9095L144.6 95.8165C145.194 96.4105 145.974 96.7076 146.754 96.7076C147.535 96.7076 148.315 96.4105 148.909 95.8165L151.108 93.6175C151.683 93.0422 152 92.2769 152 91.4632C152 90.6491 151.683 89.8842 151.108 89.3086ZM102.031 64.8175C102.031 54.8493 110.141 46.7393 120.11 46.7393C130.078 46.7393 138.188 54.8493 138.188 64.8175C138.188 74.7858 130.078 82.8958 120.11 82.8958C110.141 82.8958 102.031 74.7862 102.031 64.8175ZM136.024 77.0968L138.272 79.3447L134.636 82.9803L132.388 80.732C133.749 79.6799 134.971 78.4576 136.024 77.0968ZM149.672 92.1813L147.472 94.3804C147.077 94.7763 146.432 94.7763 146.036 94.3804L136.072 84.4165L139.708 80.7812L149.672 90.7451C149.863 90.9368 149.969 91.1918 149.969 91.4632C149.969 91.7346 149.864 91.9893 149.672 92.1813Z" fill="#333333"/>
<path fill-rule="evenodd" clip-rule="evenodd" d="M119 58.4318V66.9348C119 67.4768 119.461 67.9159 120.03 67.9159C120.599 67.9159 121.06 67.4768 121.06 66.9348V58.4318C121.06 57.8902 120.599 57.4507 120.03 57.4507C119.461 57.4507 119 57.8902 119 58.4318Z" fill="#D71920"/>
<path fill-rule="evenodd" clip-rule="evenodd" d="M119 70.8C119 71.3578 119.452 71.81 120.01 71.81C120.568 71.81 121.02 71.3578 121.02 70.8C121.02 70.2423 120.568 69.79 120.01 69.79C119.452 69.79 119 70.2423 119 70.8Z" fill="#D71920"/>
</g>
</svg>
