<?xml version="1.0" encoding="UTF-8"?>
<svg 
    width="26" 
    height="26" 
    viewBox="0 0 26 26" 
    fill="none" 
    xmlns="http://www.w3.org/2000/svg"
>
    <path 
        d="M25.4653 9.04016C25.2233 9.65133 24.765 9.82959 24.1411 9.81685C16.5397 9.80412 8.92557 9.80412 1.32419 9.81685C0.700295 9.81685 0.24192 9.65133 0 9.04016C0 8.88737 0 8.73458 0 8.58179C0.24192 8.32714 0.458375 8.02155 0.738493 7.83057C3.90892 5.70422 7.09207 3.57787 10.2752 1.46425C11.0137 0.954947 11.7777 0.48384 12.5289 0C12.6562 0 12.7963 0 12.9236 0C13.1273 0.114594 13.3438 0.229187 13.5475 0.356514C17.2654 2.82664 20.9834 5.3095 24.7013 7.8051C24.9942 8.00882 25.2106 8.31441 25.4653 8.58179C25.4653 8.73458 25.4653 8.88737 25.4653 9.04016ZM2.44466 8.36534C9.32028 8.36534 16.1322 8.36534 22.9951 8.36534C22.9187 8.30167 22.8805 8.27621 22.8423 8.25074C19.5446 6.048 16.2468 3.85799 12.9491 1.64251C12.7836 1.52792 12.6817 1.54065 12.5162 1.64251C11.1029 2.59746 9.68953 3.53967 8.27621 4.48188C6.35358 5.76788 4.43096 7.04114 2.44466 8.36534Z" 
        fill="#192670"
    />
    <path 
        d="M2.50839 25.9872C2.40653 25.949 2.30467 25.9109 2.20281 25.8727C1.22239 25.5289 0.636693 24.5739 0.789485 23.5426C0.929544 22.5622 1.8081 21.7855 2.82671 21.7727C3.80712 21.76 4.78753 21.7727 5.75521 21.7727C11.3194 21.7727 16.8835 21.7727 22.435 21.7727C23.4408 21.7727 24.2048 22.2693 24.5231 23.1351C24.956 24.2556 24.3703 25.4907 23.2244 25.8854C23.1225 25.9236 23.0207 25.9618 22.9188 26C16.145 25.9872 9.32035 25.9872 2.50839 25.9872ZM12.7582 23.1733C9.58773 23.1733 6.40457 23.1733 3.23415 23.1733C3.11956 23.1733 3.01769 23.1733 2.9031 23.1733C2.47019 23.2115 2.19007 23.4917 2.19007 23.8864C2.19007 24.2811 2.48292 24.5612 2.91583 24.5867C2.99223 24.5867 3.06863 24.5867 3.14502 24.5867C9.5368 24.5867 15.9413 24.5867 22.3331 24.5867C22.957 24.5867 23.288 24.3447 23.3008 23.8864C23.3135 23.4153 22.9697 23.1606 22.3331 23.1606C19.1245 23.1733 15.9413 23.1733 12.7582 23.1733Z" 
        fill="#192670"
    />
    <path 
        d="M21.7126 15.8138C21.7126 17.0106 21.7126 19.7354 21.7126 20.9323C21.7126 21.0723 21.7126 21.2251 21.6657 21.3525C21.572 21.6708 21.2285 21.8745 20.8381 21.8745C20.4477 21.8745 20.1042 21.658 20.0261 21.3397C19.9949 21.1997 19.9792 21.0596 19.9792 20.9195C19.9792 18.5131 19.9792 13.0508 19.9792 10.6443C19.9792 10.5807 19.9792 10.517 19.9792 10.4406C20.0105 9.98222 20.3384 9.67664 20.8381 9.67664C21.3378 9.66391 21.7126 9.98222 21.7126 10.4533C21.7126 11.7393 21.7126 14.5405 21.7126 15.8138Z" 
        fill="#192670"
    />
    <path 
        d="M16.2182 15.8138C16.2182 17.0106 16.2182 19.7354 16.2182 20.9323C16.2182 21.0723 16.2182 21.2251 16.1714 21.3525C16.0777 21.6708 15.7341 21.8745 15.3437 21.8745C14.9533 21.8745 14.6098 21.658 14.5317 21.3397C14.5005 21.1997 14.4849 21.0596 14.4849 20.9195C14.4849 18.5131 14.4849 13.0508 14.4849 10.6443C14.4849 10.5807 14.4849 10.517 14.4849 10.4406C14.5161 9.98222 14.844 9.67664 15.3437 9.67664C15.8434 9.66391 16.2182 9.98222 16.2182 10.4533C16.2182 11.7393 16.2182 14.5405 16.2182 15.8138Z" 
        fill="#192670"
    />
    <path 
        d="M10.2263 15.8138C10.2263 17.0106 10.2263 19.7354 10.2263 20.9323C10.2263 21.0723 10.2263 21.2251 10.1794 21.3525C10.0857 21.6708 9.74217 21.8745 9.35178 21.8745C8.96139 21.8745 8.61785 21.658 8.53977 21.3397C8.50854 21.1997 8.49292 21.0596 8.49292 20.9195C8.49292 18.5131 8.49292 13.0508 8.49292 10.6443C8.49292 10.5807 8.49292 10.517 8.49292 10.4406C8.52415 9.98222 8.85208 9.67664 9.35178 9.67664C9.85148 9.66391 10.2263 9.98222 10.2263 10.4533C10.2263 11.7393 10.2263 14.5405 10.2263 15.8138Z" 
        fill="#192670"
    />
    <path 
        d="M4.98333 15.8138C4.98333 17.0106 4.98333 19.7354 4.98333 20.9323C4.98333 21.0723 4.98334 21.2251 4.93649 21.3525C4.84279 21.6708 4.49925 21.8745 4.10886 21.8745C3.71847 21.8745 3.37493 21.658 3.29685 21.3397C3.26562 21.1997 3.25 21.0596 3.25 20.9195C3.25 18.5131 3.25 13.0508 3.25 10.6443C3.25 10.5807 3.25 10.517 3.25 10.4406C3.28123 9.98222 3.60916 9.67664 4.10886 9.67664C4.60856 9.66391 4.98333 9.98222 4.98333 10.4533C4.98333 11.7393 4.98333 14.5405 4.98333 15.8138Z" 
        fill="#192670"
    />
    <path 
        d="M2.24707 8.36559C4.23336 7.0414 6.15599 5.76814 8.07862 4.48214C9.49194 3.53993 10.918 2.59771 12.3313 1.64276C12.4968 1.5409 12.5987 1.52817 12.7642 1.64276C16.062 3.84551 19.3597 6.04825 22.6575 8.251C22.6957 8.27646 22.7211 8.30193 22.8103 8.36559C15.9474 8.36559 9.13542 8.36559 2.24707 8.36559Z" 
        fill="white"
    />
    <path 
        fill-rule="evenodd" 
        clip-rule="evenodd" 
        d="M9.97981 5.5868C9.83211 5.72206 9.74581 5.9071 9.73752 6.10874C9.72922 6.30705 9.79477 6.49624 9.92837 6.63897L9.95326 6.66635C10.2578 6.94516 10.7009 6.94847 10.9872 6.68875C11.4112 6.30208 11.953 6.10874 12.4949 6.10874C13.0459 6.10874 13.5968 6.30788 14.0242 6.70701C14.3229 6.98747 14.7959 6.97254 15.0805 6.6705C15.3593 6.36763 15.3427 5.89548 15.044 5.61999C13.6317 4.29649 11.4079 4.28322 9.97981 5.5868Z" 
        fill="#D71920"
    />
    <path 
        d="M12.7583 23.1733C15.9415 23.1733 19.1374 23.1733 22.3205 23.1733C22.9571 23.1733 23.3009 23.428 23.2882 23.8991C23.2755 24.3575 22.9444 24.5994 22.3205 24.5994C15.9287 24.5994 9.52422 24.5994 3.13244 24.5994C3.05604 24.5994 2.97965 24.5994 2.90325 24.5994C2.47034 24.5612 2.17749 24.2811 2.17749 23.8991C2.17749 23.5044 2.45761 23.2243 2.89052 23.1861C3.00511 23.1733 3.10697 23.1861 3.22157 23.1861C6.40472 23.1733 9.57515 23.1733 12.7583 23.1733Z" 
        fill="#D71920"
    />
</svg>