<?xml version="1.0" encoding="UTF-8"?>
<svg width="164px" height="124px" viewBox="0 0 164 124" version="1.1" xmlns="http://www.w3.org/2000/svg" xmlns:xlink="http://www.w3.org/1999/xlink">
    <!-- Generator: Sketch 63.1 (92452) - https://sketch.com -->
    <title>Group 6</title>
    <desc>Created with Sketch.</desc>
    <g id="Base-Copy" stroke="none" stroke-width="1" fill="none" fill-rule="evenodd">
        <g id="OTP-3" transform="translate(-106.000000, -192.000000)">
            <g id="Group-6" transform="translate(106.000000, 192.000000)">
                <g id="Confetti" opacity="0.792247954" fill-rule="nonzero">
                    <path d="M139.529798,77.7727842 C139.420382,77.7434002 139.309032,77.7144028 139.196522,77.6861787 C137.124564,77.1696391 135.026702,78.4319908 134.510549,80.5039486 C133.994783,82.5759065 135.256361,84.6741553 137.328319,85.1899216 L137.525888,85.2409569 C137.861484,85.3310421 138.198626,85.3743448 138.530356,85.3743448 C140.236947,85.3743448 141.798938,84.2357152 142.262123,82.5090192 C142.815392,80.4467272 141.592477,78.3264404 139.529798,77.7727842 Z" id="Path" fill="#B8D4E8"></path>
                    <path d="M26.3333333,107.333333 L27.6666667,107.333333 L27.6666667,108.666667 C27.6666667,109.402933 28.2636,110 29,110 C29.7364,110 30.3333333,109.402933 30.3333333,108.666667 L30.3333333,107.333333 L31.6666667,107.333333 C32.4030667,107.333333 33,106.736267 33,106 C33,105.263733 32.4030667,104.666667 31.6666667,104.666667 L30.3333333,104.666667 L30.3333333,103.333333 C30.3333333,102.597067 29.7364,102 29,102 C28.2636,102 27.6666667,102.597067 27.6666667,103.333333 L27.6666667,104.666667 L26.3333333,104.666667 C25.5969333,104.666667 25,105.263733 25,106 C25,106.7364 25.5969333,107.333333 26.3333333,107.333333 Z" id="Path" fill="#B8E8C5"></path>
                    <path d="M143.288873,48.7542736 L144.979863,48.7542736 L144.979863,50.4449258 C144.979863,51.3787664 145.737013,52.1357471 146.670684,52.1357471 C147.604525,52.1357471 148.361506,51.3787664 148.361506,50.4449258 L148.361506,48.7542736 L150.052158,48.7542736 C150.985829,48.7542736 151.742979,47.9971239 151.742979,47.0634524 C151.742979,46.1297809 150.985829,45.3726311 150.052158,45.3726311 L148.361506,45.3726311 L148.361506,43.6816408 C148.361506,42.7479693 147.604525,41.9908195 146.670684,41.9908195 C145.737013,41.9908195 144.979863,42.7479693 144.979863,43.6816408 L144.979863,45.3726311 L143.288873,45.3726311 C142.355201,45.3726311 141.598051,46.1297809 141.598051,47.0634524 C141.598051,47.997293 142.355201,48.7542736 143.288873,48.7542736 Z" id="Path" fill="#E8D0B8"></path>
                    <path d="M15.5538506,18.2494918 L13.6125851,18.2494918 L13.6125851,16.3082262 C13.6125851,15.2362594 12.7432864,14.3669606 11.6713195,14.3669606 C10.5993527,14.3669606 9.73005393,15.2362594 9.73005393,16.3082262 L9.73005393,18.2494918 L7.78878835,18.2494918 C6.7168215,18.2494918 5.84752278,19.1187905 5.84752278,20.1907574 C5.84752278,21.2627242 6.7168215,22.1320229 7.78878835,22.1320229 L9.73005393,22.1320229 L9.73005393,24.0732885 C9.73005393,25.1452554 10.5993527,26.0145541 11.6713195,26.0145541 C12.7432864,26.0145541 13.6125851,25.1452554 13.6125851,24.0732885 L13.6125851,22.1320229 L15.5538506,22.1320229 C16.6258175,22.1320229 17.4951162,21.2627242 17.4951162,20.1907574 C17.4951162,19.1187905 16.6260116,18.2494918 15.5538506,18.2494918 Z" id="Path" fill="#E8B8D0"></path>
                    <path d="M137.260777,11.6475934 C140.472019,11.6475934 143.084574,9.03503824 143.084574,5.82379672 C143.084574,2.61255521 140.472019,0 137.260777,0 C134.049536,0 131.436981,2.61255521 131.436981,5.82379672 C131.436981,9.03503824 134.049536,11.6475934 137.260777,11.6475934 Z M137.260777,3.88253115 C138.331191,3.88253115 139.202043,4.75338288 139.202043,5.82379672 C139.202043,6.89421056 138.331191,7.7650623 137.260777,7.7650623 C136.190364,7.7650623 135.319512,6.89421056 135.319512,5.82379672 C135.319512,4.75338288 136.190364,3.88253115 137.260777,3.88253115 Z" id="Shape" fill="#B8E8C5"></path>
                    <path d="M24.1319931,49.2471086 C27.3432346,49.2471086 29.9557898,46.6345534 29.9557898,43.4233119 C29.9557898,40.2120704 27.3432346,37.5995152 24.1319931,37.5995152 C20.9207516,37.5995152 18.3081964,40.2120704 18.3081964,43.4233119 C18.3081964,46.6345534 20.9207516,49.2471086 24.1319931,49.2471086 Z M24.1319931,41.4820463 C25.2024069,41.4820463 26.0732587,42.3528981 26.0732587,43.4233119 C26.0732587,44.4937257 25.2024069,45.3645775 24.1319931,45.3645775 C23.0615792,45.3645775 22.1907275,44.4937257 22.1907275,43.4233119 C22.1907275,42.3530922 23.0615792,41.4820463 24.1319931,41.4820463 Z" id="Shape" fill="#E8B8B8"></path>
                    <path d="M9.3846295,111.11785 C8.31538042,111.11785 7.44316979,111.990061 7.44316979,113.05931 C7.44316979,114.128559 8.31538042,115.000576 9.3846295,115.000576 C10.4536844,115.000576 11.3258951,114.128559 11.3258951,113.05931 C11.3258951,111.990061 10.4536844,111.11785 9.3846295,111.11785 Z" id="Path" fill="#E8D0B8"></path>
                    <path d="M17.0148562,91.8860701 C20.2260977,91.8860701 22.8386529,89.2735149 22.8386529,86.0622734 C22.8386529,82.8510319 20.2260977,80.2384767 17.0148562,80.2384767 C13.8036147,80.2384767 11.1910595,82.8510319 11.1910595,86.0622734 C11.1910595,89.2735149 13.8036147,91.8860701 17.0148562,91.8860701 Z M17.0148562,84.1210078 C18.08527,84.1210078 18.9561218,84.9918595 18.9561218,86.0622734 C18.9561218,87.1326872 18.08527,88.003539 17.0148562,88.003539 C15.9444424,88.003539 15.0735906,87.1326872 15.0735906,86.0622734 C15.0735906,84.9920537 15.9444424,84.1210078 17.0148562,84.1210078 Z" id="Shape" fill="#B8D4E8"></path>
                    <path d="M147.099986,112.980195 C150.79703,112.980195 153.804818,109.972407 153.804818,106.275362 C153.804818,102.578318 150.79703,99.5705297 147.099986,99.5705297 C143.402941,99.5705297 140.395153,102.578318 140.395153,106.275362 C140.395153,109.972407 143.402941,112.980195 147.099986,112.980195 Z M147.099986,103.593429 C148.578803,103.593429 149.781919,104.796544 149.781919,106.275362 C149.781919,107.75418 148.578803,108.957295 147.099986,108.957295 C145.621168,108.957295 144.418052,107.75418 144.418052,106.275362 C144.418052,104.796813 145.621168,103.593429 147.099986,103.593429 Z" id="Shape" fill="#E8B8D0"></path>
                    <path d="M163.429502,22.5877044 C163.429502,20.9258446 162.074187,19.5705297 160.412328,19.5705297 C158.750468,19.5705297 157.395153,20.9258446 157.395153,22.5877044 C157.395153,24.2495642 158.750468,25.6048791 160.412328,25.6048791 C162.074187,25.6048791 163.429502,24.2492625 163.429502,22.5877044 Z" id="Path" fill="#E8B8D0"></path>
                    <path d="M46,117 C48.2032,117 50,115.2032 50,113 C50,110.7968 48.2032,109 46,109 C43.7968,109 42,110.7968 42,113 C42.0004,115.2028 43.7972,117 46,117 Z" id="Path" fill="#E8B8B8"></path>
                    <path d="M156.384629,64.1178503 C155.31538,64.1178503 154.44317,64.9900609 154.44317,66.05931 C154.44317,67.1285591 155.31538,68.0005756 156.384629,68.0005756 C157.453684,68.0005756 158.325895,67.1285591 158.325895,66.05931 C158.325895,64.9900609 157.453684,64.1178503 156.384629,64.1178503 Z" id="Path" fill="#B8D4E8"></path>
                    <path d="M64.0018195,6.71139925 C65.0703715,6.71139925 65.9418195,5.83995125 65.9418195,4.77139925 C65.9418195,3.70284725 65.0703715,2.83139925 64.0018195,2.83139925 C62.9332675,2.83139925 62.0618195,3.70284725 62.0618195,4.77139925 C62.0618195,5.83995125 62.9332675,6.71139925 64.0018195,6.71139925 Z" id="Path" fill="#B8D4E8"></path>
                    <path d="M41.3364185,88.4530608 C42.4056675,88.4530608 43.277684,87.5810443 43.277684,86.5117953 C43.277684,85.4425462 42.4056675,84.5705297 41.3364185,84.5705297 C40.2671694,84.5705297 39.3951529,85.4425462 39.3951529,86.5117953 C39.3951529,87.5810443 40.2671694,88.4530608 41.3364185,88.4530608 Z" id="Path" fill="#E8B8B8"></path>
                    <path d="M115.662128,4.92165466 C116.954686,4.92165466 118.008819,3.86752087 118.008819,2.57496323 C118.008819,1.2824056 116.954686,0.228271811 115.662128,0.228271811 C114.36957,0.228271811 113.315437,1.2824056 113.315437,2.57496323 C113.315437,3.86752087 114.36957,4.92165466 115.662128,4.92165466 Z" id="Path" fill="#E8B8B8"></path>
                    <path d="M49.2041364,28.3771191 C50.496694,28.3771191 51.5508278,27.3229853 51.5508278,26.0304277 C51.5508278,24.73787 50.496694,23.6837362 49.2041364,23.6837362 C47.9115787,23.6837362 46.8574449,24.73787 46.8574449,26.0304277 C46.8574449,27.3229853 47.9115787,28.3771191 49.2041364,28.3771191 Z" id="Path" fill="#B8E8C5"></path>
                    <path d="M22.3466914,75.5946651 C23.6392491,75.5946651 24.6933828,74.5405313 24.6933828,73.2479737 C24.6933828,71.9554161 23.6392491,70.9012823 22.3466914,70.9012823 C21.0541338,70.9012823 20,71.9554161 20,73.2479737 C20,74.5405313 21.0541338,75.5946651 22.3466914,75.5946651 Z" id="Path" fill="#E8D0B8"></path>
                    <path d="M1.94,51.7812823 C3.008552,51.7812823 3.88,50.9098343 3.88,49.8412823 C3.88,48.7727303 3.008552,47.9012823 1.94,47.9012823 C0.871448,47.9012823 0,48.7727303 0,49.8412823 C0,50.9098343 0.871448,51.7812823 1.94,51.7812823 Z" id="Path" fill="#B8D4E8"></path>
                    <path d="M39.3428748,13.0643129 C42.1126412,13.0643129 44.3714993,10.8054547 44.3714993,8.03568839 C44.3714993,5.26592202 42.1126412,3.00706391 39.3428748,3.00706391 C36.5731085,3.00706391 34.3142503,5.26592202 34.3142503,8.03568839 C34.3142503,10.8054547 36.5731085,13.0643129 39.3428748,13.0643129 Z" id="Path" fill="#E8D0B8"></path>
                </g>
                <g id="Mobile" transform="translate(33.395153, 16.570530)" fill-rule="nonzero">
                    <g id="Group-5" transform="translate(48.343950, 56.893266) rotate(-10.000000) translate(-48.343950, -56.893266) translate(8.843950, 6.393266)">
                        <path d="M0.461083513,23.1324355 L30.3956047,96.4874466 C31.6902149,99.6630368 35.3321748,101.193905 38.5072305,99.8979589 L74.1838452,85.3373353 C77.3580991,84.0411215 78.8878987,80.4012996 77.588745,77.2254422 L47.6544911,3.87230187 C46.3598808,0.694573583 42.7171191,-0.836295014 39.5428653,0.4625914 L3.86892316,15.0226805 C0.691194871,16.3188943 -0.833526732,19.956578 0.461083513,23.1324355 Z M40.4603708,2.71533082 C42.3942684,1.92771389 44.613333,2.85858249 45.4014844,4.79060922 L75.3362728,78.1456204 C76.1273641,80.0795179 75.1964955,82.2969789 73.2623307,83.0843286 L37.5873196,97.6449522 C35.653422,98.4347072 33.4386336,97.5025023 32.6467405,95.5683375 L2.71115033,22.2117228 C1.92406792,20.2796961 2.85092761,18.0630368 4.78482516,17.2756872 L40.4603708,2.71533082 Z" id="Shape" fill="#6E6E6E"></path>
                        <path d="M33.7144465,90.2038832 L70.8193018,75.0608988 C71.134402,74.9331482 71.2821971,74.5774244 71.1533775,74.2668676 L44.8736448,9.86909474 C44.7448252,9.55827069 44.3904376,9.41020833 44.0809499,9.5371571 L6.97662917,24.6822796 C6.66179621,24.8084266 6.51400111,25.1633486 6.64282071,25.4733709 L32.9233552,89.8698074 C33.0516403,90.1835714 33.4044243,90.3327028 33.7144465,90.2038832 Z M44.7758274,12.8477139 L68.9997918,72.2105647 C69.4407717,73.2894956 68.9222862,74.5229032 67.8433552,74.9641504 L35.773422,88.0527028 C34.6944911,88.4936827 33.461618,87.9738609 33.0206381,86.8949299 L8.79694097,27.5323464 C8.35596102,26.4534155 8.87498106,25.2205424 9.95391202,24.7792952 L42.0238452,11.6910101 C43.1038452,11.2492284 44.3351147,11.7671794 44.7758274,12.8477139 Z" id="Shape" fill="#6E6E6E"></path>
                        <path d="M20.9642461,14.971901 L27.2940457,12.3850858 C27.6067405,12.257068 27.756941,11.9018787 27.6281214,11.5939945 C27.5011726,11.2810324 27.1470523,11.13297 26.8362283,11.2599188 L20.5024198,13.8467339 C20.1942684,13.9728809 20.0443352,14.327803 20.1686114,14.6378253 C20.2950256,14.9489166 20.6502149,15.0985825 20.9642461,14.971901 Z" id="Path" fill="#6E6E6E"></path>
                        <path d="M59.4398808,84.0261549 C58.894402,82.6935936 57.3702149,82.0513665 56.0376537,82.59444 L49.5517739,85.2421905 C48.220549,85.7876694 47.5756492,87.3118564 48.120059,88.6417451 L48.2814844,89.0300747 C48.821618,90.3626359 50.3482105,91.0045959 51.6826425,90.4617896 L58.1642461,87.8137718 C59.4968073,87.2696293 60.1403708,85.7457094 59.595961,84.4128809 L59.4398808,84.0261549 Z M57.7069632,86.688872 L51.2197472,89.3366226 C50.5115067,89.6255313 49.6944911,89.283705 49.4066514,88.5725246 L49.2465624,88.1831259 C48.9573864,87.4748854 49.2992127,86.6592061 50.0117294,86.3700302 L56.4989454,83.7222796 C57.207186,83.4333709 58.0258051,83.7751972 58.3120412,84.4850413 L58.4681214,84.8731036 C58.7572973,85.5826805 58.4194799,86.3970235 57.7069632,86.688872 Z" id="Shape" fill="#6E6E6E"></path>
                        <g id="emoji" transform="translate(42.672345, 55.991993) rotate(-21.000000) translate(-42.672345, -55.991993) translate(27.672345, 46.491993)">
                            <g id="Group" transform="translate(3.051735, 0.035642)">
                                <path d="M9.90217499,5.00055129 L6.86448058,5.00055129 C6.86448058,3.95214169 6.01149599,3.09925835 4.96318764,3.09925835 C3.91477805,3.09925835 3.06179345,3.95214169 3.06179345,5.00055129 L0.0240990423,5.00055129 C0.0240990423,2.27715699 2.23979335,0.0615639401 4.96318764,0.0615639401 C7.68648068,0.0614626836 9.90217499,2.27715699 9.90217499,5.00055129 Z" id="Path" fill="#7F6866"></path>
                                <path d="M23.8725316,5.00055129 L20.8348372,5.00055129 C20.8348372,3.95214169 19.9818526,3.09925835 18.933443,3.09925835 C17.8850334,3.09925835 17.0321501,3.95214169 17.0321501,5.00055129 L13.9944556,5.00055129 C13.9944556,2.27715699 16.2101499,0.0615639401 18.933443,0.0615639401 C21.6568373,0.0614626836 23.8725316,2.27715699 23.8725316,5.00055129 Z" id="Path" fill="#634C4C"></path>
                            </g>
                            <path d="M15,18.3799751 C11.0657807,18.3799751 7.86516462,15.179359 7.86516462,11.2451397 L11.4091414,11.2451397 C11.4091414,13.2251089 13.0199295,14.8359983 15,14.8359983 C16.9800705,14.8359983 18.5908586,13.2251089 18.5908586,11.2451397 L22.1348354,11.2451397 C22.1348354,15.1792577 18.934118,18.3799751 15,18.3799751 L15,18.3799751 Z" id="Path" fill="#7F6866"></path>
                            <path d="M22.1345316,11.2447347 C22.1345316,15.1795615 18.9338143,18.3802788 15,18.3802788 L15,14.836302 C16.9795642,14.836302 18.5905548,13.2253114 18.5905548,11.2447347 L22.1345316,11.2447347 Z" id="Path" fill="#634C4C"></path>
                            <g id="Group" transform="translate(0.014041, 9.249982)">
                                <circle id="Oval" fill="#FF3B3B" cx="27.543484" cy="2.44210379" r="2.38712153"></circle>
                                <circle id="Oval" fill="#FF6643" cx="2.42823166" cy="2.44210379" r="2.38712153"></circle>
                            </g>
                        </g>
                    </g>
                    <g id="Group-4" transform="translate(78.999838, 38.113281)" fill="#6E6E6E">
                        <path d="M12.1221084,6.15770177 C12.2666892,6.01078068 12.3449604,5.81770297 12.3430457,5.61331364 C12.3430457,5.52191052 12.3264978,5.43154755 12.2945132,5.34729546 C12.1825671,5.04526211 11.8910653,4.84620354 11.5705693,4.84711056 C5.41379567,4.87883823 0.427710072,9.91303073 0.459694662,16.0698043 C0.461774961,16.4837837 0.821146537,16.8379546 1.23421582,16.8369167 C1.43860515,16.8349642 1.63168286,16.7547426 1.7775638,16.6078216 C1.92253461,16.4618106 2.00041578,16.2678228 2.00041578,16.0625233 C1.97272181,10.7542515 6.26944847,6.41357849 11.5777203,6.38679464 C11.7851001,6.38679464 11.9771376,6.30553298 12.1221084,6.15770177 Z" id="Path" transform="translate(6.401294, 10.842014) scale(-1, 1) translate(-6.401294, -10.842014) "></path>
                        <path d="M16.9861065,1.539699 C17.4093172,1.53774872 17.7526965,1.19137901 17.7526965,0.764267708 C17.7503562,0.673774721 17.7341039,0.584321883 17.7021193,0.49915966 C17.5901732,0.199076593 17.2993215,-0.00219229304 16.975835,0 C7.56924501,0.0463046672 -0.0459479069,7.74054893 0.000208717386,17.1511695 C0.00228901595,17.5670992 0.362700742,17.9173695 0.776680155,17.9164611 C0.98093947,17.9154192 1.1741472,17.8342876 1.31807786,17.6873665 C1.46304866,17.5417456 1.54288012,17.3473677 1.54092984,17.1429784 C1.49776364,8.58280981 8.42580795,1.58390534 16.9861065,1.539699 Z" id="Path" transform="translate(8.876348, 8.958231) scale(-1, 1) translate(-8.876348, -8.958231) "></path>
                    </g>
                </g>
                <g id="Text" transform="translate(84.395153, 15.570530)">
                    <path d="M42.3847891,0 L5.61521092,0 C2.5190056,0 0,2.24508592 0,5.00486191 L0,25.6127726 C0,28.3724339 2.51887688,30.6176345 5.61521092,30.6176345 L31.3872295,30.6176345 C31.6628282,30.6176345 31.9188608,30.7281219 32.0898066,30.9209873 L40.4124755,40.3121881 C40.740465,40.6823152 41.2190619,40.884015 41.7201856,40.884015 C41.9064496,40.884015 42.0959318,40.856135 42.2818096,40.7985393 C42.9675239,40.5862841 43.4105929,40.0310934 43.4105929,39.3841168 L43.4105929,30.5321588 C46.0140417,30.0986993 48,28.0471672 48,25.6127726 L48,5.00474717 C48,2.24508592 45.4811231,0 42.3847891,0 Z" id="Shape" stroke="#979797" stroke-width="2" fill="#FFFFFF" fill-rule="nonzero" transform="translate(24.000000, 20.442007) scale(-1, 1) translate(-24.000000, -20.442007) "></path>
                    <text id="***" font-family="Lato-Regular, Lato" font-size="24" font-weight="normal" fill="#3C3C3C">
                        <tspan x="9" y="28">***</tspan>
                    </text>
                </g>
            </g>
        </g>
    </g>
</svg>