<?xml version="1.0" encoding="UTF-8"?>
<svg width="200" height="120" viewBox="0 0 200 120" fill="none" xmlns="http://www.w3.org/2000/svg">
<g clip-path="url(#clip0_13391_7284)">
<path d="M59.0001 3.2002V22.6002H53.5001V6.3002H29.3001V31.5002H14.8001V16.0002H0.100098V118.4L200 118.7V50.6002H184.9V32.0002H166.3V57.1002H151.2V51.5002H125V61.0002H113.6V39.7002H83.1001V3.2002H59.0001Z" fill="#E2EBFD"/>
<path d="M152 30.2H126.8C125.2 30.2 123.8 28.9 123.8 27.2V3C123.8 1.4 125.1 0 126.8 0H152C153.6 0 155 1.3 155 3V27.2C155 28.8 153.7 30.2 152 30.2Z" fill="#93B3F4"/>
<path d="M150.9 28.8998H127.9C126.4 28.8998 125.2 27.6998 125.2 26.1998V3.9998C125.2 2.4998 126.4 1.2998 127.9 1.2998H150.9C152.4 1.2998 153.6 2.4998 153.6 3.9998V26.0998C153.6 27.5998 152.4 28.8998 150.9 28.8998Z" fill="#E2EBFD"/>
<path d="M138.7 4.1C138.7 3.7 139 3.5 139.3 3.5C139.7 3.5 139.9 3.8 139.9 4.1C139.9 4.5 139.6 4.7 139.3 4.7C139 4.7 138.7 4.4 138.7 4.1Z" fill="#93B3F4"/>
<path d="M144 4.99985C144.2 4.69985 144.6 4.59985 144.9 4.79985C145.2 4.99985 145.3 5.39985 145.1 5.69985C144.9 5.99985 144.5 6.09985 144.2 5.89985C143.9 5.69985 143.8 5.29985 144 4.99985Z" fill="#93B3F4"/>
<path d="M148.4 8.50005C148.7 8.30005 149.1 8.40005 149.3 8.70005C149.5 9.00005 149.4 9.40005 149.1 9.60005C148.8 9.80005 148.4 9.70005 148.2 9.40005C148 9.10005 148.1 8.70005 148.4 8.50005Z" fill="#93B3F4"/>
<path d="M150.6 14C151 14 151.2 14.3 151.2 14.6C151.2 15 150.9 15.2 150.6 15.2C150.2 15.2 150 14.9 150 14.6C150 14.3 150.3 14 150.6 14Z" fill="#93B3F4"/>
<path d="M149.5 20.2999C149.8 20.5999 149.8 20.9999 149.5 21.1999C149.2 21.4999 148.8 21.4999 148.6 21.1999C148.3 20.8999 148.3 20.4999 148.6 20.2999C148.8 20.0999 149.3 20.0999 149.5 20.2999Z" fill="#93B3F4"/>
<path d="M145.5 24.3998C145.8 24.6998 145.8 25.0998 145.5 25.2998C145.2 25.5998 144.8 25.5998 144.6 25.2998C144.3 24.9998 144.3 24.5998 144.6 24.3998C144.8 24.0998 145.2 24.0998 145.5 24.3998Z" fill="#93B3F4"/>
<path d="M138.7 26.4999C138.7 26.0999 139 25.8999 139.3 25.8999C139.7 25.8999 139.9 26.1999 139.9 26.4999C139.9 26.8999 139.6 27.0999 139.3 27.0999C139 27.0999 138.7 26.7999 138.7 26.4999Z" fill="#93B3F4"/>
<path d="M134.8 4.99985C134.6 4.69985 134.2 4.59985 133.9 4.79985C133.6 4.99985 133.5 5.39985 133.6 5.69985C133.8 5.99985 134.2 6.09985 134.5 5.89985C134.9 5.69985 135 5.29985 134.8 4.99985Z" fill="#93B3F4"/>
<path d="M130.3 8.50005C130 8.30005 129.6 8.40005 129.4 8.70005C129.2 9.00005 129.3 9.40005 129.6 9.60005C129.9 9.80005 130.3 9.70005 130.5 9.40005C130.7 9.10005 130.6 8.70005 130.3 8.50005Z" fill="#93B3F4"/>
<path d="M128.1 14C127.7 14 127.5 14.3 127.5 14.6C127.5 15 127.8 15.2 128.1 15.2C128.5 15.2 128.7 14.9 128.7 14.6C128.8 14.3 128.5 14 128.1 14Z" fill="#93B3F4"/>
<path d="M129.3 20.2999C129 20.5999 129 20.9999 129.3 21.1999C129.6 21.4999 130 21.4999 130.2 21.1999C130.5 20.8999 130.5 20.4999 130.2 20.2999C129.9 20.0999 129.5 20.0999 129.3 20.2999Z" fill="#93B3F4"/>
<path d="M133.3 24.3998C133 24.6998 133 25.0998 133.3 25.2998C133.6 25.5998 134 25.5998 134.2 25.2998C134.5 24.9998 134.5 24.5998 134.2 24.3998C134 24.0998 133.6 24.0998 133.3 24.3998Z" fill="#93B3F4"/>
<path d="M139.2 14.6C139.2 14.2 139.5 14 139.8 14C140.2 14 140.4 14.3 140.4 14.6C140.4 15 140.1 15.2 139.8 15.2C139.5 15.3 139.2 15 139.2 14.6Z" fill="#93B3F4"/>
<path d="M140 6.6001H139.8V14.6001H140V6.6001Z" fill="#93B3F4"/>
<path d="M143.9 11.1001L139.6 14.4001L139.9 14.8001L144.2 11.5001L143.9 11.1001Z" fill="#93B3F4"/>
<path d="M113.7 15.7998V118.2H99.2002V16.1998C103.9 16.4998 108.7 16.4998 113.7 15.7998Z" fill="#D3E0FC"/>
<path d="M60.5998 47.5999C60.5998 47.5999 53.0998 51.3999 58.5998 59.6999C58.5998 59.6999 52.0998 60.3999 50.4998 58.5999C50.4998 58.5999 50.6998 59.3999 50.9998 59.7999C50.9998 59.7999 44.6998 58.9999 42.4998 56.5999C40.1998 54.1999 47.2998 22.6999 63.9998 29.0999C63.9998 29.0999 78.8998 30.4999 74.6998 47.1999C70.4998 63.8999 75.9998 64.7999 75.9998 64.7999C75.9998 64.7999 74.2998 65.2999 73.5998 65.1999C73.5998 65.1999 72.5998 64.5999 72.4998 63.9999C72.4998 63.9999 72.5998 64.9999 72.7998 65.2999C72.7998 65.2999 66.6998 64.8999 64.0998 62.0999C61.2998 59.2999 59.1998 50.8999 60.5998 47.5999Z" fill="#0B0754"/>
<path d="M71.3998 55.7999L70.7998 55.8999C68.0998 56.2999 65.5998 54.3999 65.1998 51.6999L64.7998 48.5999C64.3998 45.8999 66.2998 43.3999 68.9998 42.9999L69.5998 42.8999C72.2998 42.4999 74.7998 44.3999 75.1998 47.0999L75.5998 50.1999C75.9998 52.9999 74.0998 55.4999 71.3998 55.7999Z" fill="#93B3F4"/>
<path d="M73.1 81.1002C70.8 82.8002 69.4 89.1002 65.8 90.1002C52.2 94.0002 44.9 77.8002 42.5 70.0002C44.3 68.8002 46.1 68.5002 47.1 68.3002C48.1 68.1002 49.1 68.0002 50 67.9002C51.5 66.6002 53.5 61.7002 53.7 54.2002L54.4 54.3002L65.4 56.7002C65.4 56.7002 65.1 60.2002 65 63.4002C64.9 66.0002 64.9 66.6002 65.1 66.9002C66 67.0002 67 69.2002 67 69.2002C67 69.5002 70.4 74.5002 73.1 81.1002Z" fill="#FDA6A4"/>
<path d="M65.2998 56.6998C65.2998 56.6998 64.9998 60.1998 64.8998 63.3998C58.6998 63.0998 55.5998 57.3998 54.2998 54.2998L65.2998 56.6998Z" fill="#FC9290"/>
<path d="M121.3 113.6C121.3 113.6 114.8 113.8 107.8 113.9C107 113.9 106.1 113.9 105.3 113.9C99.6002 113.9 94.0002 113.7 91.6002 113.1C89.3002 112.5 80.3002 106.4 73.1002 99.0999C72.5002 100.4 72.1002 101.4 72.1002 101.5C71.9002 103.2 71.5002 104.8 71.1002 106.4C69.5002 112.5 66.7002 117.6 66.7002 117.7H62.8002H32.7002C32.7002 117.7 38.4002 109 36.9002 86.5999C36.9002 85.9999 42.1002 67.9999 42.1002 67.9999C42.1002 67.9999 46.2002 67.2999 50.9002 66.8999C51.3002 67.2999 52.3002 79.1999 58.2002 79.8999C59.2002 79.9999 65.3002 89.3999 65.3002 89.3999L67.2002 79.7999L65.0002 66.8999C67.8002 67.6999 69.4002 67.9999 71.8002 68.9999C73.4002 69.5999 74.7002 70.7999 75.6002 72.2999C79.7002 79.7999 93.2002 104.2 94.6002 104.8C95.9002 105.3 100.7 106.3 105.9 107.2C112.8 108.4 120.1 109.6 120.1 109.6L121.3 113.6Z" fill="#93B3F4"/>
<path d="M67.1 60.0001C67.1 60.0001 52.5 59.7001 52.8 50.6001C53.1 41.5001 51.4 35.4001 60.8 35.2001C70.2 35.0001 71.8 38.5001 72.5 41.6001C73.1 44.7001 70.9 59.9001 67.1 60.0001Z" fill="#FDA6A4"/>
<path d="M107.8 113.9C107 113.9 106.1 113.9 105.3 113.9C99.6001 113.9 94.0001 113.7 91.6001 113.1C89.3001 112.5 80.3001 106.4 73.1001 99.0998C73.1001 99.0998 74.6001 93.2998 75.3001 92.2998C76.0001 91.2998 78.5001 100.8 84.6001 104.6C90.6001 108.4 100.1 111.1 104.7 110C107.6 109.2 107.9 112 107.8 113.9Z" fill="#93B3F4"/>
<path d="M64.2998 55C64.2998 55 64.3998 56.1 66.7998 56.3C66.7998 56.3 68.7998 56.4 68.8998 55.3C68.8998 55.2 66.9998 54.1 64.2998 55Z" fill="white"/>
<path d="M65.1002 58.6999C56.7002 55.9999 54.7002 48.1999 54.7002 48.0999L55.6002 47.8999L55.1002 47.9999L55.5002 47.8999C55.5002 47.9999 57.4002 55.2999 65.3002 57.7999C65.4002 57.7999 65.4002 57.7999 65.5002 57.7999L65.2002 58.6999H65.1002Z" fill="#060632"/>
<path d="M65.9998 59.3001L65.1998 59.0001C64.7998 58.9001 64.5998 58.4001 64.6998 58.0001C64.7998 57.6001 65.2998 57.4001 65.6998 57.5001L66.4998 57.7001C66.8998 57.8001 67.0998 58.3001 66.9998 58.7001C66.7998 59.2001 66.3998 59.4001 65.9998 59.3001Z" fill="#93B3F4"/>
<path d="M68.0001 34.0001C68.0001 34.0001 64.3001 45.1001 58.6001 46.9001C53.0001 48.8001 51.1001 46.6001 51.1001 46.6001C51.1001 46.6001 55.2001 42.8001 55.7001 36.7001C55.7001 36.7001 64.8001 29.5001 68.0001 34.0001Z" fill="#0B0754"/>
<path d="M61 37.2998C61 37.2998 68.6 36.8998 70.9 38.9998C72.5 40.5998 72.5 41.3998 72.6 43.4998C72.6 43.4998 75.9 38.3998 72.5 34.7998C68.9 30.9998 61 37.2998 61 37.2998Z" fill="#0B0754"/>
<path d="M67.6002 35.2002C67.6002 35.2002 65.7002 45.8002 58.7002 49.6002C58.7002 49.6002 65.5002 42.7002 65.6002 35.8002C65.7002 28.9002 67.6002 35.2002 67.6002 35.2002Z" fill="#0B0754"/>
<path d="M42.3999 56.5998C44.5999 58.9998 50.8999 59.7998 50.8999 59.7998C50.5999 59.3998 50.3999 58.5998 50.3999 58.5998C53.5999 61.1998 61.5999 59.2998 61.5999 59.2998C55.2999 57.8998 57.2999 48.7998 59.4999 48.3998C60.7999 41.4998 63.1999 32.9998 64.3999 29.1998C64.0999 29.1998 63.9999 29.0998 63.9999 29.0998C47.1999 22.5998 40.1999 54.1998 42.3999 56.5998Z" fill="#0B0754"/>
<path d="M56.2001 54.9L55.6001 55C52.9001 55.4 50.4001 53.5 50.0001 50.8L49.6001 47.7C49.2001 45 51.1001 42.5 53.8001 42.1L54.4001 42C57.1001 41.6 59.6001 43.5 60.0001 46.2L60.4001 49.3C60.8001 52 58.9001 54.5 56.2001 54.9Z" fill="#93B3F4"/>
<path d="M52.1999 43.4C51.7999 42.7 53.0999 37.5 54.9999 33.5C55.8999 31.5 58.1999 28.9 59.7999 28.3C60.3999 28.1 61.1999 28.2 61.7999 28.3C62.2999 28.4 63.4999 29 63.4999 29C58.1999 30.6 53.5999 41.7 53.8999 42.9V42.8L52.1999 43.4Z" fill="#93B3F4"/>
<path d="M54.9999 51.8H54.6999C53.3999 52 52.0999 51 51.8999 49.7L51.6999 48.1C51.4999 46.8 52.4999 45.5 53.7999 45.3H54.0999C55.3999 45.1 56.6999 46.1 56.8999 47.4L57.0999 49C57.1999 50.3 56.2999 51.6 54.9999 51.8Z" fill="#6D89CF"/>
<path d="M90.5 108.4C90.5 108.4 96.8 108 97.4 108.4C98.4 108.9 101.8 111.1 102.3 111.7C102.8 112.3 104.2 114.9 104.2 114.9C104.2 114.9 103.6 115.1 103.3 114.8C103 114.6 101 112.4 101 112.4L103.1 115.6C103.1 115.6 102.4 115.6 102.1 115.3C101.8 115 99.8 113 99.8 113L99.1 112.9C99.1 112.9 99.8 113.4 100.2 113.9C100.6 114.4 100.8 114.9 100.8 114.9C100.8 114.9 100.2 114.8 100 114.7C99.8 114.6 98.1 113.1 98.1 113.1L99 114.4C99 114.4 98.4 114.4 98.2 114.2C98 114.1 96.6 112.8 96.4 112.8C96.2 112.8 94.4 112.7 93.7 112.3C92.9 111.9 90.6 111 90.6 111L90.5 108.4Z" fill="#FDA6A4"/>
<path d="M51.7 65.1001C51.7 65.1001 47.5 66.3001 46.5 67.3001C46.5 67.3001 50.9 78.5001 57.2 83.7001L58.9 82.5001V85.2001L65.2 89.3001C65.3 89.3001 51.4 68.5001 51.7 65.1001Z" fill="#6D89CF"/>
<path d="M71.0002 106.3C69.4002 112.4 66.6002 117.5 66.6002 117.6H68.7002H66.5002H46.5002H48.8002C48.7002 117.4 52.2002 108.1 46.5002 104.3C40.8002 100.5 38.7002 91.1002 38.7002 91.1002L56.9002 86.7002C56.9002 86.7002 64.4002 97.6002 66.5002 99.7002C68.1002 101.3 71.9002 101.4 71.9002 101.4L71.0002 106.3Z" fill="#6D89CF"/>
<path d="M65 66.9001C65 66.9001 66.9 82.1001 65.3 89.3001C65.3 89.3001 67.9 84.6001 68.3 83.7001L67.9 81.1001L69.6 81.7001C69.6 81.7001 68.1 69.6001 66.8 67.4001C65.5 65.3001 65 65.1001 65 65.1001V66.9001Z" fill="#6D89CF"/>
<path d="M121.3 113.6C121.3 113.6 113.2 113.9 105.3 113.9C103.3 110.9 105.7 107.2 105.7 107.2C112.6 108.4 119.9 109.6 119.9 109.6L121.3 113.6Z" fill="#FDA6A4"/>
<path d="M122 117.7H92.1001C92.1001 116.4 93.2001 115.3 94.5001 115.3H122V117.7Z" fill="#0B0754"/>
<path d="M168.2 85.2002L157.1 117.7H110.6L122 85.2002H168.2Z" fill="#93B3F4"/>
<path d="M168.2 85.2002L157.2 117.4L157.1 117.7H111.2L122.6 85.2002H168.2Z" fill="#3662C1"/>
<path d="M144 101.1C143.7 102.3 142.5 103.3 141.2 103.3C140 103.3 139.2 102.3 139.5 101.1C139.8 99.8999 141 98.8999 142.3 98.8999C143.6 98.8999 144.2 99.8999 144 101.1Z" fill="#EFA2A2"/>
<path d="M168.2 85.2002L157.2 117.4H136.1L161.8 85.2002H168.2Z" fill="#0B0754"/>
<path d="M90.5001 110.9C90.5001 110.9 75.1001 112.2 66.6001 111.9V103.6C72.2001 105.1 90.5001 108.4 90.5001 108.4V110.9Z" fill="#FDA6A4"/>
<path d="M46.6002 67.2998C46.6002 67.2998 37.8002 67.4998 35.1002 70.3998C32.4002 73.2998 37.8002 89.8998 37.8002 89.8998C37.8002 89.8998 54.2002 109.9 62.4002 111.4C62.4002 111.4 66.0002 111.9 67.7002 111.9C67.7002 111.9 66.1002 107.1 69.1002 104.1C69.1002 104.1 65.6002 103.1 65.4002 102.7C65.2002 102.3 46.6002 67.2998 46.6002 67.2998Z" fill="#93B3F4"/>
<path d="M199 119.6H0.9C0.4 119.6 0 119.2 0 118.7C0 118.2 0.4 117.8 0.9 117.8H199C199.5 117.8 199.9 118.2 199.9 118.7C199.9 119.2 199.5 119.6 199 119.6Z" fill="#010117"/>
</g>
<defs>
<clipPath id="clip0_13391_7284">
<rect width="200" height="119.6" fill="white"/>
</clipPath>
</defs>
</svg>
