<?xml version="1.0" encoding="UTF-8"?>
<svg 
    width="170" 
    height="87" 
    viewBox="0 0 170 87" 
    fill="none" 
    xmlns="http://www.w3.org/2000/svg"
>
    <path 
        fill-rule="evenodd" 
        clip-rule="evenodd" 
        d="M48.577 15.6699C45.548 15.6699 43.092 18.1259 43.092 21.1549C43.092 24.1839 45.548 26.6389 48.577 26.6389H17.237C14.208 26.6389 11.753 29.0939 11.753 32.1239C11.753 35.1529 14.208 37.6079 17.237 37.6079H36.825C39.854 37.6079 42.309 40.0639 42.309 43.0929C42.309 46.1219 39.854 48.5779 36.825 48.5779H5.484C2.455 48.5779 0 51.0339 0 54.0619C0 57.0909 2.455 59.5459 5.484 59.5459H36.041C33.012 59.5459 30.557 62.0019 30.557 65.0309C30.557 68.0599 33.012 70.5159 36.041 70.5159H150.434C153.462 70.5159 155.917 68.0599 155.917 65.0309C155.917 62.0019 153.462 59.5459 150.434 59.5459H145.732C142.703 59.5459 140.247 57.0909 140.247 54.0619C140.247 51.0339 142.703 48.5779 145.732 48.5779H160.619C163.648 48.5779 166.104 46.1219 166.104 43.0929C166.104 40.0639 163.648 37.6079 160.619 37.6079H143.38C146.411 37.6079 148.866 35.1529 148.866 32.1239C148.866 29.0939 146.411 26.6389 143.38 26.6389H93.237C96.266 26.6389 98.721 24.1839 98.721 21.1549C98.721 18.1259 96.266 15.6699 93.237 15.6699H48.577ZM158.268 65.0309C158.268 68.0599 160.724 70.5159 163.753 70.5159C166.782 70.5159 169.237 68.0599 169.237 65.0309C169.237 62.0019 166.782 59.5459 163.753 59.5459C160.724 59.5459 158.268 62.0019 158.268 65.0309Z" 
        fill="#D2D2D2" 
        fill-opacity="0.5"
    />
    <path 
        d="M116.352 5.701C117.65 5.701 118.703 4.649 118.703 3.35C118.703 2.052 117.65 1 116.352 1C115.054 1 114 2.052 114 3.35C114 4.649 115.054 5.701 116.352 5.701Z" 
        stroke="#A5BCC4" 
        stroke-width="2"
    />
    <path 
        fill-rule="evenodd" 
        clip-rule="evenodd" 
        d="M144 21.351C144 22.649 145.053 23.701 146.351 23.701C147.65 23.701 148.701 22.649 148.701 21.351C148.701 20.052 147.65 19 146.351 19C145.053 19 144 20.052 144 21.351Z" 
        fill="#69B4D4"
    />
    <path 
        d="M136.781 8.134C137.269 7.646 137.269 6.854 136.781 6.366C136.292 5.878 135.501 5.878 135.013 6.366L136.781 8.134ZM128.464 12.916C127.976 13.404 127.976 14.196 128.464 14.684C128.952 15.172 129.743 15.172 130.232 14.684L128.464 12.916ZM130.134 6.367C129.646 5.879 128.854 5.879 128.366 6.367C127.878 6.855 127.878 7.647 128.366 8.135L130.134 6.367ZM134.913 14.683C135.401 15.171 136.192 15.171 136.68 14.683C137.169 14.195 137.169 13.403 136.681 12.915L134.913 14.683ZM135.013 6.367L128.464 12.916L130.232 14.684L136.781 8.135L135.013 6.367ZM128.366 8.134L134.913 14.683L136.681 12.916L130.134 6.367L128.366 8.134Z" 
        fill="#A5BCC4"
    />
    <path 
        d="M24.744 27.1059L26.211 25.6389C26.699 25.1509 26.699 24.3589 26.211 23.8709C25.723 23.3829 24.931 23.3829 24.443 23.8709L22.976 25.3379L21.509 23.8709C21.021 23.3829 20.229 23.3829 19.741 23.8709C19.253 24.3589 19.253 25.1509 19.741 25.6389L21.208 27.1059L19.741 28.5729C19.253 29.0609 19.253 29.8529 19.741 30.3409C20.229 30.8289 21.021 30.8289 21.509 30.3409L22.976 28.8739L24.443 30.3409C24.931 30.8289 25.723 30.8289 26.211 30.3409C26.699 29.8529 26.699 29.0609 26.211 28.5729L24.744 27.1059Z" 
        fill="#A5BCC4"
    />
    <path 
        opacity="0.69" 
        fill-rule="evenodd" 
        clip-rule="evenodd" 
        d="M34.9277 11.2367C34.9277 12.5357 35.9797 13.5877 37.2777 13.5877C38.5767 13.5877 39.6287 12.5357 39.6287 11.2367C39.6287 9.93872 38.5767 8.88672 37.2777 8.88672C35.9797 8.88672 34.9277 9.93872 34.9277 11.2367Z" 
        fill="#69B4D4"
    />
    <path 
        fill-rule="evenodd" 
        clip-rule="evenodd" 
        d="M87.2564 43.1866C87.2308 41.5651 88.1252 38.4359 91.695 38.2607C93.1169 38.1913 95.8694 38.9303 96.1285 42.1942L96.13 42.2376L96.1267 55.2326C96.1258 55.2409 96.0558 55.9519 96.2929 56.6101H99.7766C100.046 55.9507 100.009 55.235 100.008 55.2257L100.007 55.1879V35.2849L100.07 35.3382V10.2461H70.4326V56.6101H87.2564V43.1866Z" 
        fill="#F5F5F5"
    />
    <mask 
        id="mask0_12331:7200" 
        style="mask-type:alpha" 
        maskUnits="userSpaceOnUse" 
        x="69" 
        y="1" 
        width="33" 
        height="65"
    >
        <path 
            fill-rule="evenodd" 
            clip-rule="evenodd" 
            d="M69 1.37988H101.406V65.3799H69V1.37988Z" 
            fill="white"
        />
    </mask>
    <g mask="url(#mask0_12331:7200)">
        <path 
            d="M69.0049 59.7074C69.0049 62.8354 71.5494 65.38 74.6769 65.38H95.7362C98.8672 65.38 101.411 62.8319 101.411 59.7087V7.05186C101.411 3.92442 98.8668 1.37988 95.7394 1.37988H74.6769C71.5494 1.37988 69.0049 3.92442 69.0049 7.05186V59.7074Z" 
            fill="#333333"
        />
    </g>
    <path 
        d="M99.9725 10.2466V56.6718L70.4316 56.6702V10.2466H99.9725Z" 
        fill="#F5F5F5"
    />
    <path 
        fill-rule="evenodd" 
        clip-rule="evenodd" 
        d="M70.3359 8.91052H100.071V7.05193C100.071 4.66079 98.1251 2.71582 95.7346 2.71582H74.672C72.2812 2.71582 70.3359 4.66079 70.3359 7.05193V8.91052Z" 
        fill="#666667"
    />
    <path 
        fill-rule="evenodd" 
        clip-rule="evenodd" 
        d="M70.3359 57.8536H100.071V59.7122C100.071 62.1034 98.1251 64.0483 95.7346 64.0483H74.672C72.2812 64.0483 70.3359 62.1034 70.3359 59.7122V57.8536Z" 
        fill="#666667"
    />
    <path 
        fill-rule="evenodd" 
        clip-rule="evenodd" 
        d="M80.5029 6.43212H89.9043V5.19336H80.5029V6.43212Z" 
        fill="#333333"
    />
    <path 
        fill-rule="evenodd" 
        clip-rule="evenodd" 
        d="M82.3438 61.3721H88.6058V59.936H82.3438V61.3721Z" 
        fill="#333333"
    />
    <g opacity="0.9">
        <path 
            d="M120.981 70.7593L135.32 85.0976C136.113 85.8907 137.399 85.8907 138.192 85.0976L140.391 82.8985C141.185 82.1054 141.185 80.8192 140.391 80.0258L126.053 65.6875L120.981 70.7593Z" 
            fill="#A0ADB3"
        />
        <path 
            d="M129.709 69.3448L124.638 74.4162L120.981 70.7599L126.053 65.6885L129.709 69.3448Z" 
            fill="#D8D8E4"
        />
        <path 
            d="M129.205 54.8175C129.205 65.3631 120.656 73.9114 110.111 73.9114C99.5654 73.9114 91.0166 65.3631 91.0166 54.8175C91.0166 44.2724 99.5654 35.7236 110.111 35.7236C120.656 35.7236 129.205 44.2724 129.205 54.8175Z" 
            fill="#CECECE"
        />
        <path 
            d="M123.517 54.818C123.517 62.2222 117.515 68.2243 110.11 68.2243C102.706 68.2243 96.7041 62.2222 96.7041 54.818C96.7041 47.4138 102.706 41.4116 110.11 41.4116C117.515 41.4116 123.517 47.4138 123.517 54.818Z" 
            fill="#F5FCFF"
        />
        <path 
            d="M122.072 58.1127C121.923 58.6533 122.241 59.2126 122.782 59.3616C123.322 59.5108 123.881 59.1934 124.03 58.6525L124.059 58.5475C124.132 58.2765 124.088 58.0019 123.958 57.7768C123.828 57.5518 123.612 57.376 123.341 57.3037C122.799 57.1585 122.242 57.4801 122.097 58.0218L122.072 58.1127Z" 
            fill="#333333"
        />
        <path 
            d="M96.1981 51.082C94.1402 58.7633 98.7149 66.687 106.396 68.7454C112.35 70.3409 118.661 67.9778 122.099 62.8655C122.412 62.4003 122.288 61.7689 121.823 61.4559C121.358 61.1427 120.726 61.2667 120.413 61.7319C117.46 66.1244 112.038 68.1539 106.922 66.783C100.323 65.0148 96.3919 58.2073 98.1603 51.6075C99.9286 45.0082 106.736 41.0778 113.336 42.8459C118.343 44.1875 122.016 48.5565 122.474 53.7175C122.524 54.276 123.017 54.689 123.576 54.6392C124.135 54.5894 124.547 54.0961 124.498 53.5374C124.309 51.4146 123.653 49.4077 122.627 47.6301C120.749 44.3771 117.63 41.8937 113.862 40.884C106.18 38.8258 98.2564 43.4005 96.1981 51.082Z" 
            fill="#333333"
        />
        <path 
            d="M141.108 79.3086L127.201 65.4015C129.113 62.3253 130.219 58.6984 130.219 54.8175C130.219 43.7289 121.198 34.708 110.11 34.708C99.0213 34.708 90 43.7293 90 54.8175C90 65.9062 99.0213 74.9271 110.11 74.9271C113.99 74.9271 117.617 73.821 120.693 71.9095L134.6 85.8165C135.194 86.4105 135.974 86.7076 136.754 86.7076C137.535 86.7076 138.315 86.4105 138.909 85.8165L141.108 83.6175C141.683 83.0422 142 82.2769 142 81.4632C142 80.6491 141.683 79.8842 141.108 79.3086ZM92.0313 54.8175C92.0313 44.8493 100.141 36.7393 110.11 36.7393C120.078 36.7393 128.188 44.8493 128.188 54.8175C128.188 64.7858 120.078 72.8958 110.11 72.8958C100.141 72.8958 92.0313 64.7862 92.0313 54.8175ZM126.024 67.0968L128.272 69.3447L124.636 72.9803L122.388 70.732C123.749 69.6799 124.971 68.4576 126.024 67.0968ZM139.672 82.1813L137.472 84.3804C137.077 84.7763 136.432 84.7763 136.036 84.3804L126.072 74.4165L129.708 70.7812L139.672 80.7451C139.863 80.9368 139.969 81.1918 139.969 81.4632C139.969 81.7346 139.864 81.9893 139.672 82.1813Z" 
            fill="#333333"
        />
        <path 
            fill-rule="evenodd" 
            clip-rule="evenodd" 
            d="M109 48.4318V56.9348C109 57.4768 109.461 57.9159 110.03 57.9159C110.599 57.9159 111.06 57.4768 111.06 56.9348V48.4318C111.06 47.8902 110.599 47.4507 110.03 47.4507C109.461 47.4507 109 47.8902 109 48.4318Z" 
            fill="#D71920"
        />
        <path 
            fill-rule="evenodd" 
            clip-rule="evenodd" 
            d="M109 60.8C109 61.3578 109.452 61.81 110.01 61.81C110.568 61.81 111.02 61.3578 111.02 60.8C111.02 60.2423 110.568 59.79 110.01 59.79C109.452 59.79 109 60.2423 109 60.8Z" 
            fill="#D71920"
        />
    </g>
</svg>
